<svg width="41" height="41" viewBox="0 0 41 41" fill="none" xmlns="http://www.w3.org/2000/svg">
<path d="M20.4998 37.5833C29.9347 37.5833 37.5832 29.9349 37.5832 20.5C37.5832 11.0651 29.9347 3.41666 20.4998 3.41666C11.065 3.41666 3.4165 11.0651 3.4165 20.5C3.4165 29.9349 11.065 37.5833 20.4998 37.5833Z" fill="#EB7F04"/>
<path d="M18.3473 27.8117C18.0227 27.8117 17.6981 27.6921 17.4419 27.4358C16.9465 26.9404 16.9465 26.1204 17.4419 25.625L22.5669 20.5L17.4419 15.375C16.9465 14.8796 16.9465 14.0596 17.4419 13.5642C17.9373 13.0687 18.7573 13.0687 19.2527 13.5642L25.2831 19.5946C25.7785 20.09 25.7785 20.91 25.2831 21.4054L19.2527 27.4358C18.9965 27.6921 18.6719 27.8117 18.3473 27.8117Z" fill="#202020"/>
</svg>
