<svg width="162" height="134" viewBox="0 0 162 134" fill="none" xmlns="http://www.w3.org/2000/svg">
<path d="M104.772 11.1917L109.41 11.9723L160.078 44.7804L162.868 48.7835L189.591 171.865L184.836 179.258L45.3219 209.55L37.9299 204.795L2.11477 39.8404L6.86946 32.4484L104.772 11.1917ZM48.4419 196.576L176.618 168.746L154.311 66.0097L109.506 75.738L102.113 70.9825L92.3845 26.1778L15.0888 42.9604L48.4419 196.576ZM112.625 62.7651L152.453 54.1177L103.977 22.9373L112.625 62.7651Z" stroke="#00A780"/>
<mask id="path-2-inside-1_2448_495" fill="white">
<path d="M146.036 110.675L147.994 119.693L126.151 153.379L115.226 146.307L133.489 118.101L105.239 100.006L112.185 89.0543L146.036 110.675ZM80.7794 105.197L62.7161 133.467L90.8419 151.602L83.8008 162.547L50.1825 140.89L48.2298 131.896L69.8139 98.1869L80.7794 105.197Z"/>
</mask>
<path d="M146.036 110.675L147.013 110.462L146.925 110.056L146.574 109.832L146.036 110.675ZM147.994 119.693L148.833 120.237L149.06 119.888L148.971 119.481L147.994 119.693ZM126.151 153.379L125.608 154.218L126.446 154.761L126.99 153.923L126.151 153.379ZM115.226 146.307L114.387 145.764L113.843 146.603L114.683 147.147L115.226 146.307ZM133.489 118.101L134.328 118.644L134.875 117.801L134.028 117.259L133.489 118.101ZM105.239 100.006L104.394 99.4703L103.861 100.311L104.7 100.848L105.239 100.006ZM112.185 89.0543L112.723 88.2115L111.877 87.6716L111.34 88.5187L112.185 89.0543ZM80.7794 105.197L81.6221 105.735L82.1604 104.893L81.318 104.354L80.7794 105.197ZM62.7161 133.467L61.8734 132.929L61.3372 133.768L62.1742 134.307L62.7161 133.467ZM90.8419 151.602L91.6829 152.143L92.2234 151.303L91.3838 150.761L90.8419 151.602ZM83.8008 162.547L83.2593 163.388L84.1005 163.93L84.6418 163.088L83.8008 162.547ZM50.1825 140.89L49.2052 141.102L49.293 141.507L49.6409 141.731L50.1825 140.89ZM48.2298 131.896L47.3876 131.357L47.1649 131.705L47.2525 132.109L48.2298 131.896ZM69.8139 98.1869L70.3525 97.3444L69.5106 96.8062L68.9718 97.6477L69.8139 98.1869ZM146.036 110.675L145.059 110.887L147.017 119.905L147.994 119.693L148.971 119.481L147.013 110.462L146.036 110.675ZM147.994 119.693L147.155 119.149L125.312 152.835L126.151 153.379L126.99 153.923L148.833 120.237L147.994 119.693ZM126.151 153.379L126.694 152.539L115.769 145.468L115.226 146.307L114.683 147.147L125.608 154.218L126.151 153.379ZM115.226 146.307L116.065 146.851L134.328 118.644L133.489 118.101L132.65 117.557L114.387 145.764L115.226 146.307ZM133.489 118.101L134.028 117.259L105.778 99.1639L105.239 100.006L104.7 100.848L132.95 118.943L133.489 118.101ZM105.239 100.006L106.083 100.542L113.029 89.5899L112.185 89.0543L111.34 88.5187L104.394 99.4703L105.239 100.006ZM112.185 89.0543L111.646 89.8971L145.498 111.517L146.036 110.675L146.574 109.832L112.723 88.2115L112.185 89.0543ZM80.7794 105.197L79.9367 104.658L61.8734 132.929L62.7161 133.467L63.5587 134.005L81.6221 105.735L80.7794 105.197ZM62.7161 133.467L62.1742 134.307L90.3 152.442L90.8419 151.602L91.3838 150.761L63.258 132.626L62.7161 133.467ZM90.8419 151.602L90.0009 151.061L82.9598 162.006L83.8008 162.547L84.6418 163.088L91.6829 152.143L90.8419 151.602ZM83.8008 162.547L84.3424 161.706L50.724 140.049L50.1825 140.89L49.6409 141.731L83.2593 163.388L83.8008 162.547ZM50.1825 140.89L51.1597 140.678L49.207 131.684L48.2298 131.896L47.2525 132.109L49.2052 141.102L50.1825 140.89ZM48.2298 131.896L49.0719 132.436L70.6561 98.7262L69.8139 98.1869L68.9718 97.6477L47.3876 131.357L48.2298 131.896ZM69.8139 98.1869L69.2753 99.0295L80.2408 106.039L80.7794 105.197L81.318 104.354L70.3525 97.3444L69.8139 98.1869Z" fill="#00A780" mask="url(#path-2-inside-1_2448_495)"/>
</svg>
