<svg width="18" height="18" viewBox="0 0 18 18" fill="none" xmlns="http://www.w3.org/2000/svg">
<path d="M7.125 14.625V13.5H3.375C2.9625 13.5 2.5875 13.335 2.3175 13.0575C2.04 12.7875 1.875 12.4125 1.875 12C1.875 11.2275 2.475 10.5825 3.2325 10.5075C3.2775 10.5 3.3225 10.5 3.375 10.5H14.625C14.6775 10.5 14.7225 10.5 14.7675 10.5075C15.1275 10.5375 15.4425 10.695 15.6825 10.9425C15.99 11.2425 16.155 11.67 16.1175 12.135C16.05 12.9225 15.3375 13.5 14.5425 13.5H10.875V14.625C10.875 15.66 10.035 16.5 9 16.5C7.965 16.5 7.125 15.66 7.125 14.625Z" fill="#727272"/>
<path d="M12.8924 1.5H9.93744C9.72744 1.5 9.56244 1.665 9.56244 1.875V3C9.56244 3.3075 9.30744 3.5625 8.99994 3.5625C8.93244 3.5625 8.87244 3.5475 8.81244 3.525C8.59494 3.45 8.43744 3.24 8.43744 3V1.875C8.43744 1.665 8.27244 1.5 8.06244 1.5H6.92994C6.71994 1.5 6.55494 1.665 6.55494 1.875V5.25C6.55494 5.5575 6.29994 5.8125 5.99244 5.8125C5.68494 5.8125 5.42994 5.5575 5.42994 5.25V3.5625V1.875C5.42994 1.6725 5.27994 1.515 5.07744 1.5H5.05494C3.74994 1.53 2.73744 2.6625 2.87244 3.975L3.14994 9.0375C3.17244 9.435 3.50244 9.75 3.89994 9.75H14.0999C14.4974 9.75 14.8274 9.435 14.8499 9.0375L15.1274 3.975C15.2624 2.6475 14.2199 1.5 12.8924 1.5Z" fill="#727272"/>
</svg>
