<svg width="249" height="251" viewBox="0 0 249 251" fill="none" xmlns="http://www.w3.org/2000/svg">
<path d="M89.9556 94.0203L151.594 70.0709C163.501 65.4448 173.965 64.9331 182.832 68.5271L183.684 68.8883C190.666 72.054 196.496 77.6824 200.947 85.8983L201.157 86.285L204.661 84.9237C222.576 77.9629 233.435 77.938 240.944 82.4586C248.491 87.0024 252.822 96.2199 257.434 108.252L265.375 128.691C270.042 140.702 273.044 150.437 270.53 158.89C268.029 167.301 260.002 174.613 242.087 181.574L200.995 197.54C191.387 201.273 186.057 204.605 183.66 208.533C181.233 212.51 181.88 216.966 183.777 222.666L183.932 223.133L184.4 222.986C189.443 221.404 194.963 220.828 200.037 222.75C205.092 224.666 209.795 229.098 213.147 237.726L225.122 268.545C228.791 277.988 227.87 284.814 224.824 289.768C221.761 294.75 216.492 297.934 211.291 299.955L201.018 303.947C195.816 305.968 189.78 307.176 184.157 305.569C178.565 303.971 173.277 299.558 169.608 290.115L157.633 259.296C154.238 250.559 154.77 244.094 157.268 239.275C159.777 234.437 164.315 231.167 169.108 228.927L169.514 228.738L169.37 228.314C166.749 220.59 165.148 212.477 168.214 204.725C171.277 196.984 179.051 189.467 195.501 183.075L236.594 167.109C242.367 164.866 246.658 162.976 249.713 161.086C252.771 159.194 254.649 157.266 255.51 154.921C256.37 152.582 256.185 149.92 255.331 146.642C254.478 143.366 252.933 139.392 250.995 134.404L243.012 113.858C241.074 108.87 239.531 104.897 237.948 101.904C236.365 98.9094 234.705 96.8213 232.491 95.676C230.272 94.5276 227.585 94.372 224.052 95.041C220.522 95.7094 216.081 97.2139 210.308 99.4571L206.807 100.817L206.91 101.242C209.424 111.601 208.44 120.717 204.136 128.293C199.829 135.875 192.162 141.979 181.19 146.242L119.551 170.191C107.261 174.967 96.5069 175.357 87.4614 171.374C78.4159 167.391 71.4434 159.194 66.6679 146.904C61.8719 134.56 61.5794 123.735 65.5042 114.822C69.4291 105.909 77.6119 98.8164 89.9556 94.0203Z" stroke="#9100AA"/>
</svg>
