<svg width="34" height="34" viewBox="0 0 34 34" fill="none" xmlns="http://www.w3.org/2000/svg">
<path d="M24.1399 15.0734L13.7274 4.66086L12.4949 3.42836C12.084 3.01753 11.404 3.01753 10.9932 3.42836C10.5824 3.8392 10.5824 4.5192 10.9932 4.93003L12.2257 6.16253L4.24988 14.1384C3.34321 15.045 2.86155 15.9659 2.83321 16.8867C2.80488 17.8642 3.28655 18.8417 4.24988 19.8192L9.93071 25.5C11.829 27.3842 13.7274 27.3842 15.6115 25.5L24.1399 16.9717C24.4232 16.6884 24.5507 16.3059 24.5224 15.9375C24.5082 15.6259 24.3665 15.3 24.1399 15.0734Z" fill="#9100AA"/>
<path d="M22.6667 32.2291H4.25C3.66917 32.2291 3.1875 31.7475 3.1875 31.1666C3.1875 30.5858 3.66917 30.1041 4.25 30.1041H22.6667C23.2475 30.1041 23.7292 30.5858 23.7292 31.1666C23.7292 31.7475 23.2475 32.2291 22.6667 32.2291Z" fill="#9100AA"/>
<path d="M27.4125 20.9384C27.0442 20.5417 26.3642 20.5417 25.9958 20.9384C25.5567 21.42 23.375 23.8709 23.375 25.7409C23.375 27.5825 24.8625 29.07 26.7042 29.07C28.5458 29.07 30.0333 27.5825 30.0333 25.7409C30.0333 23.885 27.8517 21.42 27.4125 20.9384Z" fill="#9100AA"/>
</svg>
