<svg width="37" height="25" viewBox="0 0 37 25" fill="none" xmlns="http://www.w3.org/2000/svg">
<path d="M4 25V16.5H2L0 14.5V6.99999L0.5 6.49999H1.5L2 6.99999V14H4V0.5L4.5 0H6.5L7 0.5V11.5H9V3.99999L9.5 3.49999H10.5L11 3.99999V12L9.5 13.5H7V25H4Z" fill="#535353"/>
<path d="M32.5 25V15H34.5L36.5 13V3.49999L36 2.99999H35L34.5 3.49999V12.5H32.5V0.5L32 0H30L29.5 0.5V11.5H27.5V2.99999L27 2.49999H26L25.5 2.99999V12L27 13.5H29.5V25H32.5Z" fill="#535353"/>
<path d="M20 25V19H21.5L23.5 17V7.49999L23 6.99999H22L21.5 7.49999V16.5H20V0.5L19.5 0H17L16.5 0.5V15H15V2.99999L14.5 2.49999H13.5L13 2.99999V15.5L14.5 17H16.5V25H20Z" fill="#535353"/>
</svg>
