<svg width="55" height="35" viewBox="0 0 55 35" fill="none" xmlns="http://www.w3.org/2000/svg">
<path d="M6 34.5V23H2.5L0 20.5V10L1 9H2.5L3.5 10V19.5H6V1.5L7 0H10L11 1.5V19.5H13V8.5L14 7.5H15L16 8.5V19.5L13.5 22H11V34.5H6Z" fill="#535353"/>
<path d="M22.5 34.5V24H20.5L18 21.5V13L19 12H20L21 13V21.5H22.5V2L23.5 1H25L26 2V12.5H28.5V6L29 5.5H30.5L31 6V12.5L28.5 15H26V34.5H22.5Z" fill="#535353"/>
<path d="M32.5 34.5V27.5H30.5L28.5 25.5V18.5L29 18H30L30.5 18.5V25.5H32.5V14.5L33 14H34L34.5 14.5V25H36V18L36.5 17.5H37.5L38 18V25.5L36.5 27H34.5V34.5H32.5Z" fill="#535353"/>
<path d="M48.5 34.5V22.5H51.5L55 19V9L54 8H52.5L51.5 9V19.5H49V1.5L48 0H45L44 1.5V15.5H41V5.5L40 4.5H39L38 5.5V16.5L40.5 19H43.5V34.5H48.5Z" fill="#535353"/>
</svg>
