<svg width="18" height="18" viewBox="0 0 18 18" fill="none" xmlns="http://www.w3.org/2000/svg">
<path d="M9 8.64746C6.93 8.64746 5.25 10.3275 5.25 12.3975C5.25 12.9525 5.37 13.4775 5.595 13.9425C5.655 14.0775 5.7225 14.205 5.7975 14.325C6.4425 15.4125 7.635 16.1475 9 16.1475C10.365 16.1475 11.5575 15.4125 12.2025 14.325C12.2775 14.205 12.345 14.0775 12.405 13.9425C12.63 13.4775 12.75 12.9525 12.75 12.3975C12.75 10.3275 11.07 8.64746 9 8.64746ZM10.5525 12.075L8.955 13.5525C8.85 13.65 8.7075 13.7025 8.5725 13.7025C8.43 13.7025 8.2875 13.65 8.175 13.5375L7.4325 12.795C7.215 12.5775 7.215 12.2175 7.4325 12C7.65 11.7825 8.01 11.7825 8.2275 12L8.5875 12.36L9.7875 11.25C10.02 11.04 10.3725 11.055 10.5825 11.28C10.7925 11.505 10.7775 11.8575 10.5525 12.075Z" fill="#727272"/>
<path d="M15.15 12.8025C14.88 13.0425 14.5875 13.245 14.2725 13.41C14.0025 13.545 13.7325 13.2825 13.7775 12.9825C13.8075 12.765 13.8225 12.54 13.8225 12.3075C13.8225 9.62252 11.6325 7.43252 8.94749 7.43252C6.26249 7.43252 4.07249 9.62252 4.07249 12.3075C4.07249 12.6525 4.10999 12.9825 4.17749 13.305C4.22999 13.5675 4.02749 13.83 3.76499 13.7625C0.802492 13.0425 0.787492 8.48252 4.10249 8.25002H4.13999C1.73249 1.55252 11.8875 -1.12498 13.05 5.91002C16.2975 6.32252 17.61 10.65 15.15 12.8025Z" fill="#727272"/>
</svg>
