<svg width="11" height="12" viewBox="0 0 11 12" fill="none" xmlns="http://www.w3.org/2000/svg">
<path d="M5.70197 0.503182H5.03115V3.85773H4.69574V4.36091H3.85721V4.86409H3.18639V5.36727H2.51557V5.87045H1.67705V5.36727H1.00623V4.86409H0.67082V3.85773H0V6.87682H0.503115V7.38H1.00623V7.88318H1.50934V8.38636H2.01246V8.88954H2.51557V11.07H3.68951V10.3991H3.01869V9.89591H3.5218V9.39273H4.19262V8.88954H4.86344V9.39273H5.19885V11.07H6.37279V10.5668H5.70197V8.38636H6.03738V7.88318H6.54049V7.04455H7.04361V5.36727H7.88213V6.03818H8.38525V4.86409H7.04361V3.69H9.22377V3.18682H10.23V0.670909H9.72688V0H5.70197V0.503182Z" fill="#535353"/>
<path d="M7.00781 0.706543V1.80908H5.90527V0.706543H7.00781Z" stroke="white" stroke-width="0.6"/>
</svg>
