<svg width="12" height="13" viewBox="0 0 12 13" fill="none" xmlns="http://www.w3.org/2000/svg">
<path d="M6.25782 0.552161H5.52161V4.23323H5.1535V4.7854H4.23323V5.33756H3.49702V5.88972H2.7608V6.44188H1.84054V5.88972H1.10432V5.33756H0.736215V4.23323H0V7.5462H0.552161V8.09836H1.10432V8.65052H1.65648V9.20268H2.20864V9.75484H2.7608V12.1475H4.04918V11.4113H3.31297V10.8592H3.86513V10.307H4.60134V9.75484H5.33756V10.307H5.70566V12.1475H6.99404V11.5954H6.25782V9.20268H6.62593V8.65052H7.17809V7.73025H7.73025V5.88972H8.65052V6.62593H9.20268V5.33756H7.73025V4.04918H10.123V3.49702H11.2273V0.736215H10.6751V0H6.25782V0.552161Z" fill="#535353"/>
<path d="M7.6626 0.804504V1.95685H6.51025V0.804504H7.6626Z" stroke="white" stroke-width="0.6"/>
</svg>
