<svg width="18" height="18" viewBox="0 0 18 18" fill="none" xmlns="http://www.w3.org/2000/svg">
<path d="M15.7801 9.96003L15.0901 9.28503L9.27759 15.09L9.97509 15.7875C10.5601 16.3725 11.1676 16.665 11.7676 16.665C12.3676 16.665 12.9751 16.3725 13.5601 15.7875L15.7801 13.5675C16.9726 12.3675 16.9726 11.16 15.7801 9.96003Z" fill="#727272"/>
<path d="M8.01757 2.19746C6.84007 1.01996 5.60257 1.01996 4.42507 2.19746L2.19757 4.41746C1.02757 5.59496 1.02757 6.83246 2.19757 8.00996L2.88757 8.69996L8.70007 2.88746L8.01757 2.19746Z" fill="#727272"/>
<path d="M16.3574 2.95495C15.3749 5.40745 13.1324 8.60995 10.9949 10.7024C10.6874 8.76745 9.14238 7.25245 7.19238 6.98245C9.29238 4.83745 12.5174 2.56495 14.9774 1.57495C15.4124 1.40995 15.8474 1.53745 16.1174 1.80745C16.4024 2.09245 16.5374 2.51995 16.3574 2.95495Z" fill="#727272"/>
<path d="M10.3351 11.3175C10.1851 11.445 10.0351 11.5725 9.88509 11.6925L8.54259 12.765C8.54259 12.7425 8.53509 12.7125 8.53509 12.6825C8.43009 11.88 8.05509 11.1375 7.44759 10.53C6.83259 9.91497 6.06759 9.53997 5.22759 9.43497C5.20509 9.43497 5.17509 9.42747 5.15259 9.42747L6.24009 8.05497C6.34509 7.91997 6.45759 7.79247 6.57759 7.65747L7.08759 7.72497C8.70009 7.94997 9.99759 9.21747 10.2526 10.8225L10.3351 11.3175Z" fill="#727272"/>
<path d="M7.82257 13.215C7.82257 14.04 7.50757 14.8275 6.90757 15.42C6.45007 15.885 5.83507 16.2 5.08507 16.29L3.24757 16.4925C2.24257 16.605 1.38007 15.7425 1.49257 14.73L1.69507 12.885C1.87507 11.2425 3.24757 10.1925 4.70257 10.1625C4.84507 10.155 5.00257 10.1625 5.15257 10.1775C5.79007 10.26 6.40507 10.5525 6.92257 11.0625C7.42507 11.565 7.71007 12.1575 7.79257 12.78C7.80757 12.93 7.82257 13.0725 7.82257 13.215Z" fill="#727272"/>
</svg>
