<svg width="18" height="18" viewBox="0 0 18 18" fill="none" xmlns="http://www.w3.org/2000/svg">
<path d="M15 4.5V4.68H11.1525C8.925 4.68 7.89 5.715 7.89 7.9425V11.775H7.3125V14.4375H7.89V15.5625H3.7125C3.405 15.5625 3.15 15.3075 3.15 15C3.15 14.6925 3.405 14.4375 3.7125 14.4375H6.1875V11.775H4.5C2.1525 11.775 1.5225 11.1975 1.5 8.925V4.5C1.5 2.1 2.1 1.5 4.5 1.5H12C14.4 1.5 15 2.1 15 4.5Z" fill="#727272"/>
<path d="M14.9999 5.84255C14.8124 5.82005 14.5949 5.80505 14.3624 5.80505H11.1524C9.54739 5.80505 9.01489 6.33755 9.01489 7.94255V14.4376C9.02239 14.9026 9.07489 15.2701 9.18739 15.5626C9.44989 16.2451 10.0424 16.5001 11.1524 16.5001H14.3624C15.9674 16.5001 16.4999 15.9676 16.4999 14.3626V7.94255C16.4999 6.57005 16.1099 5.98505 14.9999 5.84255ZM12.7574 7.56755C13.4099 7.56755 13.9349 8.09255 13.9349 8.74505C13.9349 9.39755 13.4099 9.92255 12.7574 9.92255C12.1049 9.92255 11.5799 9.39755 11.5799 8.74505C11.5799 8.09255 12.1049 7.56755 12.7574 7.56755ZM12.7574 14.3626C11.8724 14.3626 11.1524 13.6426 11.1524 12.7576C11.1524 12.3901 11.2799 12.0451 11.4899 11.7751C11.7824 11.4001 12.2399 11.1526 12.7574 11.1526C13.1624 11.1526 13.5299 11.3026 13.8074 11.5426C14.1449 11.8426 14.3624 12.2776 14.3624 12.7576C14.3624 13.6426 13.6424 14.3626 12.7574 14.3626Z" fill="#727272"/>
<path d="M14.9999 5.84255C14.8124 5.82005 14.5949 5.80505 14.3624 5.80505H11.1524C9.54739 5.80505 9.01489 6.33755 9.01489 7.94255V14.4376C9.02239 14.9026 9.07489 15.2701 9.18739 15.5626C9.44989 16.2451 10.0424 16.5001 11.1524 16.5001H14.3624C15.9674 16.5001 16.4999 15.9676 16.4999 14.3626V7.94255C16.4999 6.57005 16.1099 5.98505 14.9999 5.84255ZM12.7574 7.56755C13.4099 7.56755 13.9349 8.09255 13.9349 8.74505C13.9349 9.39755 13.4099 9.92255 12.7574 9.92255C12.1049 9.92255 11.5799 9.39755 11.5799 8.74505C11.5799 8.09255 12.1049 7.56755 12.7574 7.56755ZM12.7574 14.3626C11.8724 14.3626 11.1524 13.6426 11.1524 12.7576C11.1524 12.3901 11.2799 12.0451 11.4899 11.7751C11.7824 11.4001 12.2399 11.1526 12.7574 11.1526C13.1624 11.1526 13.5299 11.3026 13.8074 11.5426C14.1449 11.8426 14.3624 12.2776 14.3624 12.7576C14.3624 13.6426 13.6424 14.3626 12.7574 14.3626Z" fill="#727272"/>
</svg>
