<svg width="191" height="159" viewBox="0 0 191 159" fill="none" xmlns="http://www.w3.org/2000/svg">
<path d="M97.4687 45.6095C101.435 39.4426 109.776 37.6318 115.943 41.5985L131.631 51.69C133.044 52.5988 134.961 53.2584 136.898 53.6094C138.835 53.9604 140.846 54.0124 142.456 53.6629L160.688 49.7043C167.881 48.1427 175.045 52.752 176.607 59.9447L180.584 78.2611C180.933 79.8707 181.815 81.6792 182.937 83.2963C184.06 84.9137 185.456 86.3835 186.869 87.2924L202.556 97.3841L202.56 97.3863C208.809 101.335 210.613 109.666 206.388 115.797L196.289 131.498C195.38 132.911 194.72 134.828 194.369 136.765C194.018 138.702 193.966 140.713 194.316 142.323L198.274 160.555C199.836 167.748 195.227 174.913 188.034 176.475L169.802 180.434C168.192 180.783 166.383 181.664 164.766 182.787C163.149 183.91 161.679 185.305 160.77 186.718L150.679 202.406C146.712 208.573 138.372 210.384 132.205 206.417L116.517 196.326C115.104 195.417 113.187 194.757 111.25 194.406C109.313 194.055 107.302 194.003 105.692 194.353L87.4603 198.311C80.2677 199.873 73.1021 195.264 71.5404 188.071L67.5819 169.839C67.2323 168.229 66.3511 166.42 65.2285 164.803C64.1057 163.186 62.7109 161.716 61.2979 160.807L45.6092 150.716C39.4425 146.749 37.6315 138.409 41.5982 132.242L51.6899 116.554C52.5988 115.141 53.2581 113.224 53.6091 111.287C53.9601 109.35 54.0121 107.338 53.6626 105.729L49.7042 87.4973C48.1426 80.3046 52.7517 73.139 59.9444 71.5774L78.1759 67.619C79.8265 67.2607 81.6562 66.3757 83.275 65.2518C84.8929 64.1286 86.3444 62.7354 87.2124 61.326L97.4672 45.6118L97.4687 45.6095ZM153.024 135.059C148.09 136.13 144.931 141.041 146.002 145.975C147.074 150.912 151.988 154.067 157.003 152.978C161.944 151.905 165.01 147.008 163.94 142.08C162.869 137.147 157.958 133.988 153.024 135.059ZM147.799 87.238C144.573 85.1633 140.194 86.1143 138.119 89.3396L98.285 151.268C96.2104 154.493 97.1612 158.873 100.387 160.947C102.052 162.019 103.929 162.282 105.662 161.906C107.396 161.529 108.995 160.511 110.066 158.846L149.9 96.9177C151.975 93.6924 151.024 89.3127 147.799 87.238ZM91.1808 95.2066C86.2471 96.278 83.0882 101.189 84.1592 106.123C85.2305 111.056 90.1415 114.215 95.0753 113.144C100.097 112.054 103.167 107.159 102.097 102.228C101.025 97.2944 96.1146 94.1354 91.1808 95.2066Z" stroke="#C3FF79"/>
</svg>
