<svg width="14" height="14" viewBox="0 0 14 14" fill="none" xmlns="http://www.w3.org/2000/svg">
<path fill-rule="evenodd" clip-rule="evenodd" d="M7.5999 0.6C7.5999 0.268629 7.33127 0 6.9999 0C6.66853 0 6.3999 0.268629 6.3999 0.6V1.6H5.7999C4.01543 1.6 2.3999 2.85651 2.3999 4.6C2.3999 6.34349 4.01543 7.6 5.7999 7.6H6.3999V11.2H2.9999C2.66853 11.2 2.3999 11.4686 2.3999 11.8C2.3999 12.1314 2.66853 12.4 2.9999 12.4H6.3999V13.4C6.3999 13.7314 6.66853 14 6.9999 14C7.33127 14 7.5999 13.7314 7.5999 13.4V12.4H8.1999C9.98438 12.4 11.5999 11.1435 11.5999 9.4C11.5999 7.65651 9.98438 6.4 8.1999 6.4H7.5999V2.8H10.1999C10.5313 2.8 10.7999 2.53137 10.7999 2.2C10.7999 1.86863 10.5313 1.6 10.1999 1.6H7.5999V0.6ZM6.3999 2.8H5.7999C4.49638 2.8 3.5999 3.68749 3.5999 4.6C3.5999 5.51251 4.49638 6.4 5.7999 6.4H6.3999V2.8ZM7.5999 7.6V11.2H8.1999C9.50343 11.2 10.3999 10.3125 10.3999 9.4C10.3999 8.48749 9.50343 7.6 8.1999 7.6H7.5999Z" fill="#249828"/>
</svg>
