<svg width="450" height="11" viewBox="0 0 450 11" fill="none" xmlns="http://www.w3.org/2000/svg">
<path d="M0 10H3" stroke="#535353"/>
<path d="M36 10H39" stroke="#535353"/>
<path d="M67.5 9H70" stroke="#535353"/>
<path d="M103 9H104.5" stroke="#535353"/>
<path d="M133.5 9H134.5" stroke="#535353"/>
<path d="M141 9H143" stroke="#535353"/>
<path d="M113.5 7H116.5" stroke="#535353"/>
<path d="M136.5 7.5H138" stroke="#535353"/>
<path d="M161 7.5H162" stroke="#535353"/>
<path d="M184.5 7.5H185.5" stroke="#535353"/>
<path d="M196.5 9H197.5" stroke="#535353"/>
<path d="M199.5 9H201" stroke="#535353"/>
<path d="M224 8.5H225" stroke="#535353"/>
<path d="M240.5 7.5H242" stroke="#535353"/>
<path d="M251.5 10H253.5" stroke="#535353"/>
<path d="M271.5 7.5H272.5" stroke="#535353"/>
<path d="M307.5 8.5H309" stroke="#535353"/>
<path d="M328.5 7.5H330.5" stroke="#535353"/>
<path d="M321 10H322" stroke="#535353"/>
<path d="M348 9H349.5" stroke="#535353"/>
<path d="M368 8.5H369" stroke="#535353"/>
<path d="M393 10H394.5" stroke="#535353"/>
<path d="M408.5 7.5H409.5" stroke="#535353"/>
<path d="M412 7.5H413.5" stroke="#535353"/>
<path d="M422.5 7.5L424.5 7.5" stroke="#535353"/>
<path d="M431.5 7L434 7" stroke="#535353"/>
<path d="M429 9H430" stroke="#535353"/>
<path d="M373 7.5H375" stroke="#535353"/>
<path d="M386 8.5H388.5" stroke="#535353"/>
<path d="M312 10H315" stroke="#535353"/>
<path d="M265 7H267.5" stroke="#535353"/>
<path d="M286 7.5H288" stroke="#535353"/>
<path d="M211.5 9H213.5" stroke="#535353"/>
<path d="M173.5 8.5H174.5" stroke="#535353"/>
<path d="M169.5 7H171.5" stroke="#535353"/>
<path d="M76.5 7.5H78" stroke="#535353"/>
<path d="M4.5 7.5H7.5" stroke="#535353"/>
<path d="M41 7H43.5" stroke="#535353"/>
<path d="M52.5 9H54" stroke="#535353"/>
<path d="M63.5 7.5H64.5" stroke="#535353"/>
<path d="M91.5 10H92.5" stroke="#535353"/>
<path d="M441.5 10H442.5" stroke="#535353"/>
<path d="M10.5 10H12" stroke="#535353"/>
<path d="M31 9H32" stroke="#535353"/>
<path d="M0 4H152L153 3L154 2.5L155 1H158.5L160 3H161L162.5 4H173.5L174 5H175L175.5 5.5H184L184.5 5H185.5L186 4H450" stroke="#535353"/>
</svg>
