<svg width="26" height="26" viewBox="0 0 26 26" fill="none" xmlns="http://www.w3.org/2000/svg">
<path d="M18.4166 2.16666H8.66658C6.27242 2.16666 4.33325 4.10582 4.33325 6.49999V14.3542C4.33325 14.95 4.82075 15.4375 5.41659 15.4375H21.6666C22.2624 15.4375 22.7499 14.95 22.7499 14.3542V6.49999C22.7499 4.10582 20.8108 2.16666 18.4166 2.16666ZM8.66658 13.8125H7.58325C7.13909 13.8125 6.77075 13.4442 6.77075 13C6.77075 12.5558 7.13909 12.1875 7.58325 12.1875H8.66658C9.11075 12.1875 9.47908 12.5558 9.47908 13C9.47908 13.4442 9.11075 13.8125 8.66658 13.8125ZM8.66658 11.1042H7.58325C7.13909 11.1042 6.77075 10.7358 6.77075 10.2917C6.77075 9.84749 7.13909 9.47916 7.58325 9.47916H8.66658C9.11075 9.47916 9.47908 9.84749 9.47908 10.2917C9.47908 10.7358 9.11075 11.1042 8.66658 11.1042ZM8.66658 8.39582H7.58325C7.13909 8.39582 6.77075 8.02749 6.77075 7.58332C6.77075 7.13916 7.13909 6.77082 7.58325 6.77082H8.66658C9.11075 6.77082 9.47908 7.13916 9.47908 7.58332C9.47908 8.02749 9.11075 8.39582 8.66658 8.39582Z" fill="#00A780"/>
<path d="M4.33325 18.1458V19.5C4.33325 21.8942 6.27242 23.8333 8.66658 23.8333H18.4166C20.8108 23.8333 22.7499 21.8942 22.7499 19.5V18.1458C22.7499 17.55 22.2624 17.0625 21.6666 17.0625H5.41659C4.82075 17.0625 4.33325 17.55 4.33325 18.1458ZM19.1858 21.0817C18.9799 21.2767 18.6983 21.3958 18.4166 21.3958C18.1349 21.3958 17.8533 21.2767 17.6474 21.0817C17.4524 20.8758 17.3333 20.5942 17.3333 20.3125C17.3333 20.0308 17.4524 19.7492 17.6474 19.5433C18.0483 19.1425 18.7741 19.1425 19.1858 19.5433C19.3807 19.7492 19.4999 20.0308 19.4999 20.3125C19.4999 20.5942 19.3807 20.8758 19.1858 21.0817Z" fill="#00A780"/>
</svg>
