<svg width="26" height="26" viewBox="0 0 26 26" fill="none" xmlns="http://www.w3.org/2000/svg">
<path d="M2.43726 22.75H20.3123L21.0922 22.1487L25.366 10.7737L24.586 9.74997H22.7498V5.68747L21.9373 4.87497H12.5284L11.131 3.49376L10.5623 3.24997H2.43726L1.62476 4.06247V21.9375L2.43726 22.75ZM3.24976 4.87497H10.2211L11.6185 6.25618L12.1873 6.49997H21.1248V9.74997H13.8123L13.2435 9.99376L11.8461 11.375H5.68726L4.92355 11.9274L3.29855 16.9325L3.24976 4.87497ZM19.711 21.125H3.55841L6.27223 13H12.1873L12.756 12.7562L14.1534 11.375H23.5623L19.711 21.125Z" fill="#EB7F04"/>
</svg>
