<svg width="30" height="30" viewBox="0 0 30 30" fill="none" xmlns="http://www.w3.org/2000/svg">
<path d="M9.94186 25.1163V30H0V24.9141C0 24.0066 0.123131 23.1032 0.366024 22.2288L0.392404 22.1339C0.709406 20.9926 1.2368 19.9207 1.94745 18.9732C2.62058 18.0757 3.44721 17.3043 4.38912 16.6949L4.44202 16.6606C5.42628 16.0238 6.51619 15.5675 7.66061 15.3131L7.87928 15.2646C8.67056 15.0887 9.47871 15 10.2893 15H24.9419L19.8837 25.1163H9.94186Z" fill="white"/>
<path d="M24.9419 9.94186H13.0814C10.8658 9.94186 9.06977 11.7379 9.06977 13.9535L7.92521 14.0415C7.17943 14.0989 6.44351 14.2475 5.73392 14.484L5.70762 14.4928C4.70118 14.8283 3.76204 15.3392 2.93363 16.0019C2.0328 16.7226 1.27905 17.6098 0.713479 18.6153L0 19.8837V0H30L24.9419 9.94186Z" fill="white"/>
</svg>
