<svg width="24" height="24" viewBox="0 0 24 24" fill="none" xmlns="http://www.w3.org/2000/svg">
<path d="M7.95349 20.093V24H0V19.9313C0 19.2053 0.0985046 18.4826 0.292819 17.7831L0.313924 17.7071C0.567525 16.7941 0.989441 15.9366 1.55796 15.1785C2.09647 14.4605 2.75777 13.8435 3.51129 13.3559L3.55362 13.3285C4.34102 12.819 5.21295 12.454 6.12849 12.2505L6.30342 12.2116C6.93645 12.071 7.58297 12 8.23144 12H19.9535L15.907 20.093H7.95349Z" fill="white"/>
<path d="M19.9535 7.95349H10.4651C8.69267 7.95349 7.25581 9.39034 7.25581 11.1628L6.34017 11.2332C5.74355 11.2791 5.15481 11.398 4.58713 11.5872L4.56609 11.5942C3.76094 11.8626 3.00963 12.2714 2.3469 12.8015C1.62624 13.3781 1.02324 14.0879 0.570784 14.8923L0 15.907V0H24L19.9535 7.95349Z" fill="white"/>
</svg>
