<svg width="237" height="203" viewBox="0 0 237 203" fill="none" xmlns="http://www.w3.org/2000/svg">
<g clip-path="url(#clip0_2324_651)">
<mask id="path-1-inside-1_2324_651" fill="white">
<path d="M224.561 93.1284L215.731 118.077L241.114 113.679L257.07 138.183L184.963 243.231L150.702 249.167L163.297 191.324L146.012 194.319L128.035 174.817L150.05 90.8004L162.786 79.1296L207.48 71.3855L224.561 93.1284ZM143.313 178.747L185.827 171.38L169.87 235.74L243.813 129.252L189.151 138.723L210.178 86.9581L165.484 94.7023L143.313 178.747ZM229.129 19.5128L238.265 25.95L251.136 100.233L230.841 75.6789L224.041 36.4345L52.7382 66.1161L74.3248 190.7L114.503 183.738L127.323 197.557L69.2367 207.622L60.1013 201.185L35.8164 61.028L42.2536 51.8926L229.129 19.5128ZM118.501 167.005L87.2 172.428L84.5017 156.856L122.811 150.218L118.501 167.005ZM127.12 133.431L81.8035 141.283L79.1052 125.71L131.43 116.644L127.12 133.431Z"/>
</mask>
<path d="M224.561 93.1284L225.504 93.462L225.687 92.9433L225.347 92.5106L224.561 93.1284ZM215.731 118.077L214.788 117.744L214.218 119.354L215.902 119.063L215.731 118.077ZM241.114 113.679L241.952 113.134L241.593 112.581L240.944 112.694L241.114 113.679ZM257.07 138.183L257.895 138.749L258.273 138.198L257.908 137.637L257.07 138.183ZM184.963 243.231L185.134 244.216L185.549 244.144L185.788 243.797L184.963 243.231ZM150.702 249.167L149.725 248.955L149.409 250.406L150.873 250.153L150.702 249.167ZM163.297 191.324L164.274 191.537L164.59 190.085L163.126 190.339L163.297 191.324ZM146.012 194.319L145.276 194.997L145.646 195.398L146.182 195.305L146.012 194.319ZM128.035 174.817L127.068 174.563L126.929 175.092L127.3 175.495L128.035 174.817ZM150.05 90.8004L149.374 90.0632L149.157 90.2621L149.083 90.547L150.05 90.8004ZM162.786 79.1296L162.615 78.1443L162.326 78.1943L162.11 78.3924L162.786 79.1296ZM207.48 71.3855L208.266 70.7677L207.897 70.2982L207.309 70.4001L207.48 71.3855ZM143.313 178.747L142.347 178.492L141.949 179.998L143.484 179.732L143.313 178.747ZM185.827 171.38L186.798 171.621L187.167 170.133L185.657 170.395L185.827 171.38ZM169.87 235.74L168.899 235.499L170.691 236.31L169.87 235.74ZM243.813 129.252L244.634 129.822L245.998 127.858L243.642 128.267L243.813 129.252ZM189.151 138.723L188.225 138.347L187.547 140.016L189.322 139.708L189.151 138.723ZM210.178 86.9581L211.105 87.3344L211.783 85.6652L210.007 85.9728L210.178 86.9581ZM165.484 94.7023L165.313 93.717L164.681 93.8265L164.517 94.4472L165.484 94.7023ZM229.129 19.5128L229.705 18.6953L229.367 18.4567L228.959 18.5274L229.129 19.5128ZM238.265 25.95L239.25 25.7792L239.179 25.3711L238.841 25.1325L238.265 25.95ZM251.136 100.233L250.365 100.87L252.764 103.772L252.121 100.062L251.136 100.233ZM230.841 75.6789L229.856 75.8496L229.901 76.1113L230.07 76.316L230.841 75.6789ZM224.041 36.4345L225.027 36.2638L224.856 35.2785L223.871 35.4492L224.041 36.4345ZM52.7382 66.1161L52.5675 65.1308L51.5822 65.3015L51.7529 66.2868L52.7382 66.1161ZM74.3248 190.7L73.3395 190.871L73.5102 191.856L74.4955 191.686L74.3248 190.7ZM114.503 183.738L115.237 183.058L114.867 182.661L114.333 182.753L114.503 183.738ZM127.323 197.557L127.494 198.543L129.31 198.228L128.056 196.877L127.323 197.557ZM69.2367 207.622L68.6607 208.439L68.9993 208.678L69.4075 208.607L69.2367 207.622ZM60.1013 201.185L59.116 201.356L59.1867 201.764L59.5253 202.002L60.1013 201.185ZM35.8164 61.028L34.999 60.452L34.7604 60.7906L34.8311 61.1988L35.8164 61.028ZM42.2536 51.8926L42.0829 50.9072L41.6748 50.978L41.4362 51.3166L42.2536 51.8926ZM118.501 167.005L118.672 167.99L119.309 167.88L119.47 167.253L118.501 167.005ZM87.2 172.428L86.2147 172.599L86.3854 173.584L87.3707 173.413L87.2 172.428ZM84.5017 156.856L84.331 155.87L83.3457 156.041L83.5164 157.026L84.5017 156.856ZM122.811 150.218L123.779 150.466L124.164 148.968L122.64 149.232L122.811 150.218ZM127.12 133.431L127.291 134.416L127.928 134.306L128.089 133.679L127.12 133.431ZM81.8035 141.283L80.8181 141.454L80.9889 142.439L81.9742 142.268L81.8035 141.283ZM79.1052 125.71L78.9345 124.725L77.9492 124.896L78.1199 125.881L79.1052 125.71ZM131.43 116.644L132.399 116.893L132.783 115.395L131.259 115.659L131.43 116.644ZM224.561 93.1284L223.618 92.7947L214.788 117.744L215.731 118.077L216.673 118.411L225.504 93.462L224.561 93.1284ZM215.731 118.077L215.902 119.063L241.285 114.665L241.114 113.679L240.944 112.694L215.56 117.092L215.731 118.077ZM241.114 113.679L240.276 114.225L256.232 138.729L257.07 138.183L257.908 137.637L241.952 113.134L241.114 113.679ZM257.07 138.183L256.246 137.617L184.139 242.665L184.963 243.231L185.788 243.797L257.895 138.749L257.07 138.183ZM184.963 243.231L184.793 242.246L150.532 248.182L150.702 249.167L150.873 250.153L185.134 244.216L184.963 243.231ZM150.702 249.167L151.679 249.38L164.274 191.537L163.297 191.324L162.32 191.111L149.725 248.955L150.702 249.167ZM163.297 191.324L163.126 190.339L145.841 193.334L146.012 194.319L146.182 195.305L163.468 192.31L163.297 191.324ZM146.012 194.319L146.747 193.641L128.771 174.139L128.035 174.817L127.3 175.495L145.276 194.997L146.012 194.319ZM128.035 174.817L129.003 175.07L151.017 91.0539L150.05 90.8004L149.083 90.547L127.068 174.563L128.035 174.817ZM150.05 90.8004L150.726 91.5377L163.461 79.8669L162.786 79.1296L162.11 78.3924L149.374 90.0632L150.05 90.8004ZM162.786 79.1296L162.956 80.1149L207.651 72.3708L207.48 71.3855L207.309 70.4001L162.615 78.1443L162.786 79.1296ZM207.48 71.3855L206.694 72.0032L223.775 93.7461L224.561 93.1284L225.347 92.5106L208.266 70.7677L207.48 71.3855ZM143.313 178.747L143.484 179.732L185.998 172.366L185.827 171.38L185.657 170.395L143.143 177.761L143.313 178.747ZM185.827 171.38L184.857 171.14L168.899 235.499L169.87 235.74L170.841 235.981L186.798 171.621L185.827 171.38ZM169.87 235.74L170.691 236.31L244.634 129.822L243.813 129.252L242.991 128.681L169.049 235.17L169.87 235.74ZM243.813 129.252L243.642 128.267L188.981 137.738L189.151 138.723L189.322 139.708L243.983 130.237L243.813 129.252ZM189.151 138.723L190.078 139.099L211.105 87.3344L210.178 86.9581L209.252 86.5818L188.225 138.347L189.151 138.723ZM210.178 86.9581L210.007 85.9728L165.313 93.717L165.484 94.7023L165.655 95.6876L210.349 87.9434L210.178 86.9581ZM165.484 94.7023L164.517 94.4472L142.347 178.492L143.313 178.747L144.28 179.002L166.451 94.9573L165.484 94.7023ZM229.129 19.5128L228.553 20.3302L237.689 26.7674L238.265 25.95L238.841 25.1325L229.705 18.6953L229.129 19.5128ZM238.265 25.95L237.279 26.1207L250.15 100.404L251.136 100.233L252.121 100.062L239.25 25.7792L238.265 25.95ZM251.136 100.233L251.906 99.5957L231.612 75.0418L230.841 75.6789L230.07 76.316L250.365 100.87L251.136 100.233ZM230.841 75.6789L231.826 75.5082L225.027 36.2638L224.041 36.4345L223.056 36.6053L229.856 75.8496L230.841 75.6789ZM224.041 36.4345L223.871 35.4492L52.5675 65.1308L52.7382 66.1161L52.9089 67.1014L224.212 37.4199L224.041 36.4345ZM52.7382 66.1161L51.7529 66.2868L73.3395 190.871L74.3248 190.7L75.3101 190.529L53.7235 65.9454L52.7382 66.1161ZM74.3248 190.7L74.4955 191.686L114.674 184.724L114.503 183.738L114.333 182.753L74.1541 189.715L74.3248 190.7ZM114.503 183.738L113.77 184.419L126.59 198.237L127.323 197.557L128.056 196.877L115.237 183.058L114.503 183.738ZM127.323 197.557L127.153 196.572L69.066 206.637L69.2367 207.622L69.4075 208.607L127.494 198.543L127.323 197.557ZM69.2367 207.622L69.8127 206.805L60.6773 200.367L60.1013 201.185L59.5253 202.002L68.6607 208.439L69.2367 207.622ZM60.1013 201.185L61.0866 201.014L36.8017 60.8573L35.8164 61.028L34.8311 61.1988L59.116 201.356L60.1013 201.185ZM35.8164 61.028L36.6339 61.604L43.0711 52.4686L42.2536 51.8926L41.4362 51.3166L34.999 60.452L35.8164 61.028ZM42.2536 51.8926L42.4243 52.8779L229.3 20.4981L229.129 19.5128L228.959 18.5274L42.0829 50.9072L42.2536 51.8926ZM118.501 167.005L118.33 166.019L87.0293 171.443L87.2 172.428L87.3707 173.413L118.672 167.99L118.501 167.005ZM87.2 172.428L88.1853 172.257L85.487 156.685L84.5017 156.856L83.5164 157.026L86.2147 172.599L87.2 172.428ZM84.5017 156.856L84.6724 157.841L122.982 151.203L122.811 150.218L122.64 149.232L84.331 155.87L84.5017 156.856ZM122.811 150.218L121.842 149.969L117.533 166.756L118.501 167.005L119.47 167.253L123.779 150.466L122.811 150.218ZM127.12 133.431L126.95 132.445L81.6327 140.298L81.8035 141.283L81.9742 142.268L127.291 134.416L127.12 133.431ZM81.8035 141.283L82.7888 141.112L80.0905 125.539L79.1052 125.71L78.1199 125.881L80.8181 141.454L81.8035 141.283ZM79.1052 125.71L79.2759 126.696L131.601 117.629L131.43 116.644L131.259 115.659L78.9345 124.725L79.1052 125.71ZM131.43 116.644L130.461 116.395L126.152 133.182L127.12 133.431L128.089 133.679L132.399 116.893L131.43 116.644Z" fill="#00B8EB" mask="url(#path-1-inside-1_2324_651)"/>
</g>
<defs>
<clipPath id="clip0_2324_651">
<rect width="252.88" height="252.88" fill="white" transform="translate(0 43.1731) rotate(-9.83)"/>
</clipPath>
</defs>
</svg>
