<svg width="224" height="212" viewBox="0 0 224 212" fill="none" xmlns="http://www.w3.org/2000/svg">
<path d="M62.0738 208.05C75.1204 209.535 88.3989 210.063 101.473 210.006C105.932 222.415 110.782 234.663 116.567 246.449C116.556 246.454 116.546 246.459 116.536 246.463C116.412 246.523 116.324 246.562 116.258 246.587C94.5984 240.138 75.5117 226.6 62.0477 208.386C62.0487 208.316 62.0572 208.22 62.0718 208.084C62.073 208.074 62.0726 208.062 62.0738 208.05Z" stroke="#2D2D2D"/>
<path d="M246.536 176.24C246.602 176.363 246.632 176.41 246.675 176.494C246.68 176.503 246.683 176.511 246.686 176.518C240.11 198.427 226.312 217.687 207.783 231.248C209.352 217.862 210.313 204.474 210.197 191.169C222.604 186.814 234.714 181.894 246.476 176.121C246.497 176.164 246.517 176.204 246.536 176.24Z" stroke="#2D2D2D"/>
<path d="M175.671 45.8255C198.011 52.3809 217.566 66.162 231.252 84.9961C217.965 83.4149 204.694 82.5313 191.378 82.5504C187.016 69.9903 181.707 57.6978 175.671 45.8255Z" stroke="#2D2D2D"/>
<path d="M84.2932 62.0785C84.3615 62.0889 84.4383 62.1067 84.5402 62.1309C84.5735 62.1388 84.6106 62.1449 84.6492 62.1536C83.1624 75.2083 82.6988 88.2859 82.7735 101.468C70.1862 105.737 57.9017 111.143 45.8246 117.123C52.3612 95.113 65.8576 75.6403 84.276 62.0765C84.2814 62.0773 84.2874 62.0776 84.2932 62.0785Z" stroke="#2D2D2D"/>
<path d="M128.489 43.0623C137.042 41.5804 145.609 41.3378 153.908 41.8754C154.085 42.5069 154.231 43.1244 154.544 43.8318L154.552 43.8502L154.561 43.8684C161.503 56.6419 167.191 69.9482 172.19 83.4894C148.052 84.9876 124.169 89.1253 100.934 95.8348C101.085 81.3975 101.949 66.8544 104.207 52.5935L104.21 52.5722L104.211 52.5521C104.247 52.0674 104.205 51.6591 104.154 51.2806C104.117 51.0114 104.077 50.7701 104.051 50.5145C111.783 47.1989 119.833 44.5619 128.489 43.0623Z" stroke="#2D2D2D"/>
<path d="M83.4917 120.59C85.0899 144.711 89.2279 168.595 95.8376 191.848C81.3025 191.714 66.8572 190.833 52.5933 188.575L52.5719 188.572L52.5518 188.57L52.2016 188.557C51.8647 188.556 51.5642 188.589 51.2803 188.628C51.0111 188.665 50.7697 188.704 50.5141 188.73C47.1987 180.998 44.5616 172.948 43.0621 164.293C41.5801 155.739 41.3373 147.172 41.875 138.873C42.5065 138.696 43.1242 138.551 43.8315 138.238L43.8482 138.231L43.8645 138.223C56.6621 131.379 69.8554 125.607 83.4917 120.59Z" stroke="#2D2D2D"/>
<path d="M196.946 100.934C211.384 101.085 225.927 101.949 240.189 104.207L240.209 104.21L240.23 104.211C240.986 104.267 241.592 104.273 242.295 104.181C245.606 111.905 248.24 119.945 249.72 128.489C251.219 137.144 251.443 145.612 250.922 154.009C250.673 154.069 250.433 154.114 250.167 154.17C249.793 154.249 249.395 154.347 248.95 154.544L248.933 154.551L248.916 154.559C236.122 161.401 222.83 167.189 209.292 172.19C207.794 148.052 203.656 124.169 196.946 100.934Z" stroke="#2D2D2D"/>
<path d="M191.848 196.947C191.714 211.481 190.833 225.926 188.575 240.189L188.572 240.209L188.57 240.23C188.514 241.001 188.584 241.631 188.63 242.284C180.996 245.582 172.847 248.238 164.293 249.72C155.637 251.219 147.169 251.443 138.772 250.922C138.711 250.673 138.667 250.433 138.612 250.167C138.533 249.793 138.435 249.395 138.238 248.95L138.231 248.933L138.222 248.916L136.932 246.476C130.65 234.444 125.289 222.063 120.59 209.293C132.652 208.554 144.653 207.406 156.603 205.335C168.551 203.265 180.337 200.292 191.848 196.947Z" stroke="#2D2D2D"/>
<path d="M101.069 114.454C126.187 106.799 152.097 102.31 178.327 101.069C185.983 126.188 190.471 152.097 191.712 178.327C166.594 185.983 140.684 190.472 114.454 191.712C106.799 166.594 102.31 140.684 101.069 114.454Z" stroke="#2D2D2D"/>
</svg>
