<svg width="30" height="30" viewBox="0 0 30 30" fill="none" xmlns="http://www.w3.org/2000/svg">
<g clip-path="url(#clip0_2485_567)">
<path d="M9.56245 26.1375C9.52495 26.1375 9.47495 26.1625 9.43745 26.1625C7.01245 24.9625 5.03745 22.975 3.82495 20.55C3.82495 20.5125 3.84995 20.4625 3.84995 20.425C5.37495 20.875 6.94995 21.2125 8.51245 21.475C8.78745 23.05 9.11245 24.6125 9.56245 26.1375Z" fill="#00C13A"/>
<path d="M26.175 20.5625C24.9375 23.0501 22.875 25.0626 20.3625 26.2751C20.8375 24.6876 21.2375 23.0875 21.5 21.475C23.075 21.2125 24.625 20.875 26.15 20.425C26.1375 20.475 26.175 20.525 26.175 20.5625Z" fill="#00C13A"/>
<path d="M26.275 9.63748C24.7 9.16248 23.1125 8.77498 21.5 8.49998C21.2375 6.88748 20.85 5.28748 20.3625 3.72498C22.95 4.96248 25.0375 7.04998 26.275 9.63748Z" fill="#00C13A"/>
<path d="M9.5626 3.86245C9.1126 5.38745 8.7876 6.93745 8.5251 8.51245C6.9126 8.76245 5.3126 9.16245 3.7251 9.63745C4.9376 7.12495 6.9501 5.06245 9.4376 3.82495C9.4751 3.82495 9.5251 3.86245 9.5626 3.86245Z" fill="#00C13A"/>
<path d="M19.3624 8.2375C16.4625 7.9125 13.5375 7.9125 10.6375 8.2375C10.95 6.525 11.35 4.8125 11.9125 3.1625C11.9375 3.0625 11.925 2.9875 11.9375 2.8875C12.925 2.65 13.9375 2.5 15 2.5C16.05 2.5 17.0749 2.65 18.0499 2.8875C18.0624 2.9875 18.0625 3.0625 18.0875 3.1625C18.65 4.825 19.0499 6.525 19.3624 8.2375Z" fill="#00C13A"/>
<path d="M8.2375 19.3624C6.5125 19.0499 4.8125 18.65 3.1625 18.0875C3.0625 18.0625 2.9875 18.0749 2.8875 18.0624C2.65 17.075 2.5 16.0625 2.5 15C2.5 13.95 2.65 12.925 2.8875 11.95C2.9875 11.9375 3.0625 11.9375 3.1625 11.9125C4.825 11.3625 6.5125 10.95 8.2375 10.6375C7.925 13.5375 7.925 16.4625 8.2375 19.3624Z" fill="#00C13A"/>
<path d="M27.5 15C27.5 16.0625 27.35 17.075 27.1125 18.0624C27.0125 18.0749 26.9374 18.0625 26.8374 18.0875C25.1749 18.6375 23.475 19.0499 21.7625 19.3624C22.0875 16.4625 22.0875 13.5375 21.7625 10.6375C23.475 10.95 25.1874 11.35 26.8374 11.9125C26.9374 11.9375 27.0125 11.95 27.1125 11.95C27.35 12.9375 27.5 13.95 27.5 15Z" fill="#00C13A"/>
<path d="M19.3624 21.7625C19.0499 23.4875 18.65 25.1874 18.0875 26.8374C18.0625 26.9374 18.0624 27.0125 18.0499 27.1125C17.0749 27.35 16.05 27.5 15 27.5C13.9375 27.5 12.925 27.35 11.9375 27.1125C11.925 27.0125 11.9375 26.9374 11.9125 26.8374C11.3625 25.1749 10.95 23.4875 10.6375 21.7625C12.0875 21.925 13.5375 22.0375 15 22.0375C16.4625 22.0375 17.925 21.925 19.3624 21.7625Z" fill="#00C13A"/>
<path d="M19.7042 19.7042C16.5778 20.0986 13.4222 20.0986 10.2958 19.7042C9.90139 16.5778 9.90139 13.4222 10.2958 10.2958C13.4222 9.90139 16.5778 9.90139 19.7042 10.2958C20.0986 13.4222 20.0986 16.5778 19.7042 19.7042Z" fill="#00C13A"/>
</g>
<defs>
<clipPath id="clip0_2485_567">
<rect width="30" height="30" fill="white"/>
</clipPath>
</defs>
</svg>
