<svg width="11" height="10" viewBox="0 0 11 10" fill="none" xmlns="http://www.w3.org/2000/svg">
<path fill-rule="evenodd" clip-rule="evenodd" d="M5.5 0.996753C5.01935 0.546046 4.36772 0.184985 3.65232 0.0534323C2.80089 -0.103135 1.85938 0.0674838 1.04136 0.790725C0.496234 1.27269 0.155223 2.03094 0.0422226 2.85032C-0.0717301 3.6766 0.0392366 4.60619 0.445227 5.46765C0.738946 6.09089 1.43819 6.87491 2.1648 7.5966C2.90736 8.33414 3.73415 9.05965 4.3392 9.57242C5.01189 10.1425 5.98812 10.1425 6.66081 9.57243C7.26585 9.05965 8.09264 8.33414 8.8352 7.5966C9.56181 6.87491 10.2611 6.0909 10.5548 5.46766C10.9608 4.60619 11.0717 3.6766 10.9578 2.85032C10.8448 2.03095 10.5038 1.2727 9.95864 0.790732C9.14063 0.0674918 8.19911 -0.103129 7.34768 0.0534361C6.63228 0.184987 5.98065 0.546047 5.5 0.996753ZM3.49516 0.910079C2.87955 0.796876 2.21551 0.914608 1.61723 1.44357C1.26946 1.75105 0.99713 2.29427 0.904016 2.96944C0.811855 3.63771 0.902 4.39574 1.23202 5.096C1.45179 5.56233 2.04224 6.24798 2.77751 6.97828C3.49683 7.69274 4.30411 8.40155 4.90129 8.90765C5.24956 9.20281 5.75044 9.20281 6.09872 8.90765C6.69589 8.40155 7.50317 7.69274 8.22249 6.97829C8.95776 6.24799 9.54821 5.56234 9.76798 5.096C10.098 4.39575 10.1881 3.63772 10.096 2.96945C10.0029 2.29428 9.73054 1.75105 9.38277 1.44358C8.78449 0.914615 8.12045 0.796881 7.50484 0.910083C6.87442 1.02601 6.29531 1.38617 5.92381 1.80854C5.69934 2.06374 5.30067 2.06374 5.0762 1.80854C4.70469 1.38617 4.12558 1.026 3.49516 0.910079Z" fill="#A7130E"/>
</svg>
