<svg width="18" height="18" viewBox="0 0 18 18" fill="none" xmlns="http://www.w3.org/2000/svg">
<path d="M12.1425 1.5H5.8575C3.1275 1.5 1.5 3.1275 1.5 5.8575V12.135C1.5 14.8725 3.1275 16.5 5.8575 16.5H12.135C14.865 16.5 16.4925 14.8725 16.4925 12.1425V5.8575C16.5 3.1275 14.8725 1.5 12.1425 1.5ZM12.3075 7.3725C11.85 8.6775 10.62 9.555 9.24 9.555C9.2325 9.555 9.2325 9.555 9.225 9.555L7.68 9.5475C7.68 9.5475 7.68 9.5475 7.6725 9.5475C7.1025 9.5475 6.6075 9.93 6.4575 10.4775C7.125 10.6875 7.6125 11.31 7.6125 12.045C7.6125 12.9525 6.87 13.695 5.9625 13.695C5.055 13.695 4.3125 12.9525 4.3125 12.045C4.3125 11.3775 4.7175 10.8 5.2875 10.545V7.275C4.7175 7.05 4.3125 6.495 4.3125 5.85C4.3125 5.0025 5.0025 4.3125 5.85 4.3125C6.6975 4.3125 7.3875 5.0025 7.3875 5.85C7.3875 6.5025 6.9825 7.05 6.4125 7.275V8.79C6.78 8.5575 7.215 8.4225 7.6725 8.4225H7.68L9.225 8.43C10.11 8.46 10.8975 7.89 11.2125 7.065C10.845 6.78 10.605 6.345 10.605 5.85C10.605 5.0025 11.295 4.3125 12.1425 4.3125C12.99 4.3125 13.68 5.0025 13.68 5.85C13.6875 6.645 13.08 7.29 12.3075 7.3725Z" fill="#727272"/>
</svg>
