<svg width="24" height="24" viewBox="0 0 24 24" fill="none" xmlns="http://www.w3.org/2000/svg">
<path d="M12.7725 1.5C13.3936 1.50001 13.9935 1.57936 14.5713 1.73926C15.1477 1.8988 15.6868 2.12577 16.1875 2.41992C16.6938 2.7137 17.153 3.06561 17.5635 3.47461C17.9737 3.88343 18.3263 4.34045 18.6211 4.84472C18.9163 5.34354 19.1445 5.88071 19.3047 6.45508C19.4652 7.03101 19.5449 7.62985 19.5449 8.24902C19.5449 9.17458 19.3686 10.0368 19.0146 10.832C18.6617 11.6247 18.1578 12.343 17.5059 12.9863C16.9977 13.4865 16.6074 14.044 16.333 14.6572C16.066 15.2682 15.9318 15.9323 15.9316 16.6504V19.0518C15.9316 19.3206 15.8806 19.5755 15.7783 19.8135C15.6771 20.0488 15.5371 20.2555 15.3604 20.4316C15.1836 20.6077 14.9761 20.7459 14.7402 20.8467C14.5017 20.9485 14.247 20.9999 13.9775 21H11.5674C11.2979 20.9999 11.0433 20.9485 10.8047 20.8467C10.5687 20.7459 10.3614 20.6078 10.1846 20.4316C10.0078 20.2554 9.86787 20.0489 9.7666 19.8135C9.66428 19.5755 9.61333 19.3207 9.61328 19.0518V16.6504C9.61317 15.9325 9.47629 15.2681 9.20312 14.6572C8.93508 14.0444 8.54705 13.4864 8.03906 12.9863C7.38705 12.343 6.88324 11.6248 6.53027 10.832C6.17631 10.0368 6.00002 9.17463 6 8.24902C6.00004 7.62985 6.07967 7.03101 6.24023 6.45508C6.40042 5.88075 6.62865 5.34351 6.92383 4.84472C7.2187 4.34032 7.57203 3.88351 7.98242 3.47461C8.3927 3.06587 8.84773 2.71368 9.34766 2.41992C9.85432 2.126 10.3973 1.89878 10.9736 1.73926C11.5514 1.57939 12.1513 1.5 12.7725 1.5ZM11.1123 19.0518C11.1124 19.173 11.1559 19.2762 11.248 19.3682C11.3405 19.4603 11.4446 19.5038 11.5674 19.5039H13.9775C14.1003 19.5038 14.2045 19.4602 14.2969 19.3682C14.389 19.2762 14.4325 19.173 14.4326 19.0518V15.75H11.1123V19.0518Z" fill="#5C5C5C"/>
</svg>
