<svg width="26" height="26" viewBox="0 0 26 26" fill="none" xmlns="http://www.w3.org/2000/svg">
<path fill-rule="evenodd" clip-rule="evenodd" d="M18.965 14.0695C18.4144 14.6115 17.9913 15.2146 17.6941 15.8792C17.4046 16.5414 17.2592 17.2607 17.2592 18.039V20.6396C17.2592 20.9312 17.2042 21.2069 17.0932 21.4649C16.9834 21.7201 16.8327 21.9438 16.6411 22.1348C16.4495 22.3257 16.225 22.4757 15.9692 22.585C15.7106 22.6954 15.4343 22.7501 15.1421 22.7501H12.5321C12.2399 22.7501 11.9636 22.6954 11.705 22.585C11.4492 22.4757 11.2247 22.3257 11.0331 22.1348C10.8415 21.9438 10.6908 21.7201 10.581 21.4649C10.4701 21.2069 10.4151 20.9312 10.4151 20.6396V18.039C10.4151 17.2609 10.2663 16.5418 9.97024 15.8798C9.67984 15.2156 9.25977 14.6114 8.70924 14.0695C8.00261 13.3723 7.45706 12.5939 7.07462 11.7348C6.69103 10.8731 6.5 9.93979 6.5 8.93684C6.5 8.2659 6.5868 7.61814 6.76078 6.99407C6.93433 6.37155 7.18099 5.78976 7.50091 5.24916C7.82043 4.70249 8.20263 4.20742 8.64738 3.76428C9.09193 3.32133 9.5852 2.94061 10.1269 2.62229C10.6759 2.30378 11.2636 2.05769 11.8881 1.88484C12.5142 1.71156 13.164 1.62511 13.8371 1.62511C14.5102 1.62511 15.16 1.71156 15.7861 1.88484C16.4106 2.05769 16.9943 2.30337 17.5367 2.62206C18.0853 2.94036 18.5821 3.32113 19.0268 3.76428C19.4716 4.20741 19.8538 4.70247 20.1733 5.24913C20.4932 5.78974 20.7399 6.37154 20.9134 6.99407C21.0874 7.61814 21.1742 8.2659 21.1742 8.93684C21.1742 9.93979 20.9832 10.8731 20.5996 11.7348C20.2172 12.5939 19.6716 13.3723 18.965 14.0695ZM15.6351 17.0626H12.0391V20.6396C12.0391 20.7713 12.0854 20.8833 12.1857 20.9832C12.2859 21.0831 12.3989 21.1297 12.5321 21.1297H15.1421C15.2754 21.1297 15.3883 21.0831 15.4885 20.9832C15.5888 20.8833 15.6351 20.7713 15.6351 20.6396V17.0626Z" fill="#D9B933"/>
</svg>
