<svg width="12" height="12" viewBox="0 0 12 12" fill="none" xmlns="http://www.w3.org/2000/svg">
<path fill-rule="evenodd" clip-rule="evenodd" d="M3 3V4.5H2.8125C2.4644 4.5 2.13056 4.63828 1.88442 4.88442C1.63828 5.13056 1.5 5.4644 1.5 5.8125V9.9375C1.5 10.662 2.088 11.25 2.8125 11.25H9.1875C9.53558 11.25 9.8694 11.1117 10.1156 10.8656C10.3617 10.6194 10.5 10.2856 10.5 9.9375V5.8125C10.5 5.4644 10.3617 5.13056 10.1156 4.88442C9.8694 4.63828 9.53558 4.5 9.1875 4.5H9V3C9 2.20435 8.68395 1.44129 8.1213 0.878677C7.55872 0.31607 6.79565 0 6 0C5.20435 0 4.44129 0.31607 3.87868 0.878677C3.31607 1.44129 3 2.20435 3 3ZM7.875 4.5V3C7.875 2.50272 7.67745 2.0258 7.32583 1.67417C6.9742 1.32254 6.49728 1.125 6 1.125C5.50272 1.125 5.0258 1.32254 4.67417 1.67417C4.32254 2.0258 4.125 2.50272 4.125 3V4.5H7.875ZM9 5.625H9.1875C9.23722 5.625 9.28492 5.64475 9.3201 5.67991C9.35527 5.71508 9.375 5.76278 9.375 5.8125V9.9375C9.375 9.98722 9.35527 10.0349 9.3201 10.0701C9.28492 10.1053 9.23722 10.125 9.1875 10.125H2.8125C2.76278 10.125 2.71508 10.1053 2.67992 10.0701C2.64476 10.0349 2.625 9.98722 2.625 9.9375V5.8125C2.625 5.76278 2.64476 5.71508 2.67992 5.67991C2.71508 5.64475 2.76278 5.625 2.8125 5.625H9Z" fill="#535353"/>
</svg>
