<svg width="28" height="28" viewBox="0 0 28 28" fill="none" xmlns="http://www.w3.org/2000/svg">
<g clip-path="url(#clip0_2265_534)">
<path d="M14 28C21.732 28 28 21.732 28 14C28 6.26801 21.732 0 14 0C6.26801 0 0 6.26801 0 14C0 21.732 6.26801 28 14 28Z" fill="url(#paint0_linear_2265_534)"/>
<path d="M11.4333 20.4167C10.9797 20.4167 11.0568 20.2454 10.9004 19.8135L9.56665 15.4242L19.8333 9.33334" fill="#CBD9E8"/>
<path d="M11.4333 20.4167C11.7833 20.4167 11.9379 20.2566 12.1333 20.0667L14 18.2516L11.6716 16.8475" fill="#AFC9DE"/>
<path d="M11.6714 16.8479L17.3134 21.0162C17.9573 21.3715 18.4219 21.1875 18.5823 20.4186L20.8789 9.59621C21.114 8.65354 20.5195 8.22584 19.9035 8.50549L6.41805 13.7054C5.49755 14.0747 5.50303 14.5883 6.25028 14.817L9.71096 15.8973L17.7228 10.8427C18.101 10.6133 18.4482 10.7365 18.1633 10.9894" fill="white"/>
</g>
<defs>
<linearGradient id="paint0_linear_2265_534" x1="14" y1="0" x2="14" y2="27.7923" gradientUnits="userSpaceOnUse">
<stop stop-color="#2AABEE"/>
<stop offset="1" stop-color="#229ED9"/>
</linearGradient>
<clipPath id="clip0_2265_534">
<rect width="28" height="28" fill="white"/>
</clipPath>
</defs>
</svg>
