<svg width="28" height="28" viewBox="0 0 28 28" fill="none" xmlns="http://www.w3.org/2000/svg">
<g clip-path="url(#clip0_2428_494)">
<path d="M14 28C21.732 28 28 21.732 28 14C28 6.26801 21.732 0 14 0C6.26801 0 0 6.26801 0 14C0 21.732 6.26801 28 14 28Z" fill="#727272"/>
<path d="M11.4333 20.4166C10.9797 20.4166 11.0568 20.2454 10.9004 19.8135L9.56665 15.4241L19.8333 9.33331" fill="#ADADAD"/>
<path d="M11.4333 20.4167C11.7833 20.4167 11.9379 20.2566 12.1333 20.0667L14 18.2516L11.6716 16.8475" fill="#9C9C9C"/>
<path d="M11.6714 16.8478L17.3134 21.0162C17.9573 21.3715 18.4219 21.1875 18.5823 20.4185L20.8789 9.59618C21.114 8.65351 20.5195 8.22581 19.9035 8.50546L6.41805 13.7054C5.49755 14.0747 5.50303 14.5882 6.25028 14.817L9.71096 15.8972L17.7228 10.8426C18.101 10.6133 18.4482 10.7365 18.1633 10.9894" fill="#C9C9C9"/>
</g>
<defs>
<clipPath id="clip0_2428_494">
<rect width="28" height="28" fill="white"/>
</clipPath>
</defs>
</svg>
