<svg width="28" height="28" viewBox="0 0 28 28" fill="none" xmlns="http://www.w3.org/2000/svg">
<path fill-rule="evenodd" clip-rule="evenodd" d="M14 0.875C6.58733 0.875 0.583374 6.87896 0.583374 14.2917C0.583374 20.2285 4.42389 25.243 9.75702 27.0207C10.4279 27.1381 10.6794 26.7356 10.6794 26.3834C10.6794 26.0648 10.6626 25.0082 10.6626 23.8846C7.29171 24.5051 6.41962 23.0628 6.15129 22.3081C6.00035 21.9224 5.34629 20.7317 4.77608 20.413C4.3065 20.1615 3.63567 19.5409 4.75931 19.5242C5.81587 19.5074 6.57056 20.4969 6.82212 20.8994C8.02962 22.9286 9.95827 22.3584 10.7297 22.0062C10.8471 21.1342 11.1993 20.5472 11.585 20.2118C8.59983 19.8764 5.48046 18.7192 5.48046 13.5873C5.48046 12.1282 6.00035 10.9207 6.85567 9.98156C6.7215 9.64614 6.25192 8.27094 6.98983 6.42614C6.98983 6.42614 8.11348 6.07396 10.6794 7.80135C11.7527 7.49948 12.8932 7.34854 14.0336 7.34854C15.174 7.34854 16.3144 7.49948 17.3877 7.80135C19.9537 6.05719 21.0773 6.42614 21.0773 6.42614C21.8152 8.27094 21.3457 9.64614 21.2115 9.98156C22.0668 10.9207 22.5867 12.1115 22.5867 13.5873C22.5867 18.7359 19.4506 19.8764 16.4654 20.2118C16.9517 20.631 17.371 21.436 17.371 22.6939C17.371 24.4883 17.3542 25.9306 17.3542 26.3834C17.3542 26.7356 17.6058 27.1549 18.2766 27.0207C23.5762 25.243 27.4167 20.2118 27.4167 14.2917C27.4167 6.87896 21.4127 0.875 14 0.875V0.875Z" fill="#727272"/>
</svg>
