<svg width="26" height="26" viewBox="0 0 26 26" fill="none" xmlns="http://www.w3.org/2000/svg">
<path fill-rule="evenodd" clip-rule="evenodd" d="M22.5266 9.21784C22.7114 8.76284 23.3086 6.95706 22.3417 4.51143C22.3417 4.51143 20.8488 4.04222 17.4505 6.35987C16.0286 5.96175 14.5072 5.90487 13 5.90487C11.4928 5.90487 9.97141 5.96175 8.54953 6.35987C5.15125 4.028 3.65828 4.51143 3.65828 4.51143C2.69141 6.95706 3.28859 8.76284 3.47344 9.21784C2.32172 10.4549 1.625 12.0474 1.625 13.9811C1.625 21.3038 6.35984 22.9532 12.9716 22.9532C19.5833 22.9532 24.375 21.3038 24.375 13.9811C24.375 12.0474 23.6783 10.4549 22.5266 9.21784ZM13 21.5597C8.30781 21.5597 4.49719 21.3464 4.49719 16.7964C4.49719 15.7158 5.0375 14.6921 5.9475 13.8532C7.46891 12.4597 10.0709 13.1991 13 13.1991C15.9433 13.1991 18.5169 12.4597 20.0525 13.8532C20.9767 14.6921 21.5028 15.7016 21.5028 16.7964C21.5028 21.3322 17.6922 21.5597 13 21.5597ZM9.43109 14.4361C8.49266 14.4361 7.72484 15.5736 7.72484 16.9671C7.72484 18.3605 8.49266 19.5122 9.43109 19.5122C10.3695 19.5122 11.1373 18.3747 11.1373 16.9671C11.1373 15.5594 10.3695 14.4361 9.43109 14.4361ZM16.5689 14.4361C15.6305 14.4361 14.8627 15.5594 14.8627 16.9671C14.8627 18.3747 15.6305 19.5122 16.5689 19.5122C17.5073 19.5122 18.2752 18.3747 18.2752 16.9671C18.2752 15.5594 17.5216 14.4361 16.5689 14.4361Z" fill="#FF75F6"/>
</svg>
