<svg width="24" height="24" viewBox="0 0 24 24" fill="none" xmlns="http://www.w3.org/2000/svg">
<path fill-rule="evenodd" clip-rule="evenodd" d="M20.7938 8.50876C20.9644 8.08876 21.5156 6.42188 20.6231 4.16438C20.6231 4.16438 19.245 3.73126 16.1081 5.87063C14.7956 5.50313 13.3913 5.45063 12 5.45063C10.6088 5.45063 9.20438 5.50313 7.89188 5.87063C4.755 3.71813 3.37688 4.16438 3.37688 4.16438C2.48438 6.42188 3.03563 8.08876 3.20625 8.50876C2.14312 9.65063 1.5 11.1206 1.5 12.9056C1.5 19.665 5.87063 21.1875 11.9738 21.1875C18.0769 21.1875 22.5 19.665 22.5 12.9056C22.5 11.1206 21.8569 9.65063 20.7938 8.50876ZM12 19.9013C7.66875 19.9013 4.15125 19.7044 4.15125 15.5044C4.15125 14.5069 4.65 13.5619 5.49 12.7875C6.89438 11.5013 9.29625 12.1838 12 12.1838C14.7169 12.1838 17.0925 11.5013 18.51 12.7875C19.3631 13.5619 19.8488 14.4938 19.8488 15.5044C19.8488 19.6913 16.3313 19.9013 12 19.9013ZM8.70563 13.3256C7.83938 13.3256 7.13063 14.3756 7.13063 15.6619C7.13063 16.9481 7.83938 18.0113 8.70563 18.0113C9.57188 18.0113 10.2806 16.9613 10.2806 15.6619C10.2806 14.3625 9.57188 13.3256 8.70563 13.3256ZM15.2944 13.3256C14.4281 13.3256 13.7194 14.3625 13.7194 15.6619C13.7194 16.9613 14.4281 18.0113 15.2944 18.0113C16.1606 18.0113 16.8694 16.9613 16.8694 15.6619C16.8694 14.3625 16.1738 13.3256 15.2944 13.3256Z" fill="#5C5C5C"/>
</svg>
