<svg width="18" height="18" viewBox="0 0 18 18" fill="none" xmlns="http://www.w3.org/2000/svg">
<path d="M15.4126 7.08003H14.5876C14.4751 7.08003 14.3626 7.10253 14.2576 7.13253L10.5151 3.39003C10.8751 2.92503 10.8451 2.25753 10.4176 1.83753L9.83259 1.25253C9.39009 0.810029 8.61009 0.810029 8.16009 1.25253L7.57509 1.83753C7.15509 2.25753 7.12509 2.92503 7.48509 3.39003L3.74259 7.13253C3.63759 7.10253 3.52509 7.08003 3.41259 7.08003H2.58759C1.93509 7.08003 1.40259 7.61253 1.40259 8.26503V9.09003C1.40259 9.74253 1.93509 10.275 2.58759 10.275H3.41259C4.06509 10.275 4.59759 9.74253 4.59759 9.09003V8.26503C4.59759 8.15253 4.57509 8.04003 4.54509 7.93503L8.28759 4.19253C8.49009 4.35003 8.74509 4.43253 9.00009 4.43253C9.25509 4.43253 9.51009 4.34253 9.72009 4.18503L13.4626 7.92753C13.4326 8.03253 13.4101 8.14503 13.4101 8.25753V9.08253C13.4101 9.73503 13.9426 10.2675 14.5951 10.2675H15.4201C16.0726 10.2675 16.6051 9.73503 16.6051 9.08253V8.25753C16.5901 7.60503 16.0651 7.08003 15.4126 7.08003Z" fill="#727272"/>
<path d="M11.8125 12.4125L10.5825 13.5H7.38754L6.15754 12.4125C5.44504 11.8275 5.44504 11.3775 5.98504 10.6875L8.15254 7.94252C8.30254 7.75502 8.47504 7.62752 8.67004 7.56002C8.87254 7.49252 9.09004 7.49252 9.30004 7.56002C9.48754 7.62752 9.66004 7.75502 9.81754 7.94252L11.985 10.6875C12.525 11.37 12.5025 11.7975 11.8125 12.4125Z" fill="#727272"/>
<path d="M9.96742 16.5H8.02492C7.33492 16.5 6.81742 15.9375 6.95242 15.3375L7.18492 14.295C7.22992 14.085 7.41742 13.9425 7.62742 13.9425H10.3649C10.5749 13.9425 10.7549 14.085 10.8074 14.295L11.0399 15.3375C11.1899 15.975 10.7024 16.5 9.96742 16.5Z" fill="#727272"/>
</svg>
