<svg width="18" height="18" viewBox="0 0 18 18" fill="none" xmlns="http://www.w3.org/2000/svg">
<path d="M14.7975 12.075C14.7975 12.0525 14.8125 12.03 14.8125 12V4.87501C14.8125 3.73501 13.89 2.81251 12.75 2.81251H9.8025L10.86 1.93501C11.1 1.73251 11.13 1.38001 10.935 1.14001C10.7325 0.90001 10.38 0.870009 10.14 1.06501L7.89 2.94001C7.7625 3.04501 7.6875 3.20251 7.6875 3.37501C7.6875 3.54751 7.7625 3.69751 7.89 3.81001L10.14 5.68501C10.245 5.77501 10.3725 5.81251 10.5 5.81251C10.6575 5.81251 10.8225 5.74501 10.935 5.61001C11.1375 5.37001 11.1 5.01751 10.86 4.81501L9.8025 3.93751H12.75C13.2675 3.93751 13.6875 4.35751 13.6875 4.87501V12C13.6875 12.03 13.7025 12.0525 13.7025 12.075C12.7275 12.3225 12 13.2 12 14.25C12 15.495 13.005 16.5 14.25 16.5C15.495 16.5 16.5 15.495 16.5 14.25C16.5 13.2 15.7725 12.3225 14.7975 12.075Z" fill="#727272"/>
<path d="M10.11 14.19L7.86 12.315C7.62 12.1125 7.2675 12.15 7.065 12.39C6.8625 12.63 6.9 12.9825 7.14 13.185L8.1975 14.0625H5.25C4.7325 14.0625 4.3125 13.6425 4.3125 13.125V6C4.3125 5.97 4.2975 5.9475 4.2975 5.925C5.2725 5.6775 6 4.8 6 3.75C6 2.505 4.995 1.5 3.75 1.5C2.505 1.5 1.5 2.505 1.5 3.75C1.5 4.8 2.2275 5.6775 3.2025 5.925C3.2025 5.9475 3.1875 5.97 3.1875 6V13.125C3.1875 14.265 4.11 15.1875 5.25 15.1875H8.1975L7.14 16.065C6.9 16.2675 6.87 16.62 7.065 16.86C7.1775 16.995 7.335 17.0625 7.5 17.0625C7.6275 17.0625 7.755 17.0175 7.86 16.935L10.11 15.06C10.2375 14.955 10.3125 14.7975 10.3125 14.625C10.3125 14.4525 10.2375 14.3025 10.11 14.19Z" fill="#727272"/>
</svg>
