<svg width="24" height="24" viewBox="0 0 24 24" fill="none" xmlns="http://www.w3.org/2000/svg">
<path fill-rule="evenodd" clip-rule="evenodd" d="M20.9999 15V2.25L20.2499 1.5H5.6099C5.26587 1.5038 4.92538 1.56987 4.6049 1.695C4.28184 1.83856 3.99072 2.04519 3.74859 2.30277C3.50647 2.56035 3.31822 2.86369 3.1949 3.195C3.0722 3.49004 3.00605 3.80552 2.9999 4.125V18.375C2.99629 18.7197 3.06263 19.0616 3.1949 19.38C3.46062 20.021 3.96674 20.5325 4.6049 20.805C4.92538 20.9301 5.26587 20.9962 5.6099 21H5.9999V19.5H5.6099C5.46023 19.5005 5.31209 19.4698 5.1749 19.41C4.90333 19.2973 4.68754 19.0816 4.5749 18.81C4.52697 18.6699 4.50165 18.5231 4.4999 18.375V17.625C4.50165 17.4769 4.52697 17.3301 4.5749 17.19C4.68754 16.9184 4.90333 16.7026 5.1749 16.59C5.31013 16.531 5.456 16.5004 5.60349 16.5H5.60957L5.6099 16.5L5.99969 16.5L19.4999 16.5V19.5H13.4999V21H20.2499L20.9999 20.25V16.5V15ZM19.4999 3H5.99969V15H19.4999V3ZM7.49958 4.5H8.99958V6H7.49958V4.5ZM7.49958 7.5H8.99958V9H7.49958V7.5ZM8.99958 10.5H7.49958V12H8.99958V10.5ZM9.7502 20.235L7.9202 22.5H7.5002V18H12.0002V22.5H11.5802L9.7502 20.235Z" fill="#5C5C5C"/>
</svg>
