<svg width="26" height="26" viewBox="0 0 26 26" fill="none" xmlns="http://www.w3.org/2000/svg">
<path fill-rule="evenodd" clip-rule="evenodd" d="M22.7499 16.2501V2.43757L21.9374 1.62507H6.07741C5.70471 1.62919 5.33585 1.70076 4.98866 1.83632C4.63869 1.99185 4.3233 2.2157 4.061 2.49474C3.79869 2.77379 3.59476 3.10241 3.46116 3.46132C3.32824 3.78095 3.25658 4.12272 3.24991 4.46882V19.9063C3.246 20.2798 3.31787 20.6502 3.46116 20.9951C3.74903 21.6895 4.29732 22.2436 4.98866 22.5388C5.33585 22.6744 5.70471 22.7459 6.07741 22.7501H6.49991V21.1251H6.07741C5.91526 21.1256 5.75479 21.0924 5.60616 21.0276C5.31196 20.9055 5.07819 20.6718 4.95616 20.3776C4.90423 20.2258 4.87681 20.0667 4.87491 19.9063V19.0938C4.87681 18.9334 4.90423 18.7743 4.95616 18.6226C5.07819 18.3284 5.31196 18.0946 5.60616 17.9726C5.74654 17.9114 5.89749 17.8783 6.05043 17.8753H6.49993V17.8751H21.1249V21.1251H14.6249V22.7501H21.9374L22.7499 21.9376V17.8751V16.2501ZM4.87491 16.5263L4.87493 16.5263V4.46675L4.87491 4.46882V16.5263ZM6.49993 3.2503V16.2501H21.1249V3.25007H6.07741C6.06839 3.25004 6.05938 3.25012 6.05037 3.2503H6.49993ZM8.1249 4.87515H9.7499V6.50015H8.1249V4.87515ZM8.1249 8.12512H9.7499V9.75012H8.1249V8.12512ZM9.7499 11.3751H8.1249V13.0001H9.7499V11.3751ZM10.5624 21.9213L8.57993 24.375H8.12493V19.5H12.9999V24.375H12.5449L10.5624 21.9213Z" fill="#75BEFF"/>
</svg>
