<svg width="188" height="140" viewBox="0 0 188 140" fill="none" xmlns="http://www.w3.org/2000/svg">
<path d="M126.493 34.9948L160.412 27.6301C174.135 24.6505 187.784 33.3578 190.781 47.1634L216.558 165.883C219.555 179.688 210.747 193.272 197.023 196.251L163.104 203.616C149.508 206.567 135.616 196.074 132.386 182.449L164.964 175.376C168.8 174.543 171.139 170.783 170.326 167.041C169.514 163.298 165.826 160.847 161.99 161.679L129.407 168.754L124.926 148.112L166.838 139.45L166.928 139.431C170.559 138.642 172.881 135.174 172.368 131.544L172.31 131.192L172.308 131.181C171.478 127.359 167.796 124.902 163.958 125.734L163.959 125.733L121.952 134.415L117.652 114.611L140.992 109.543C144.738 108.73 147.167 104.955 146.353 101.208C145.54 97.4617 141.765 95.0335 138.018 95.847L114.678 100.915L110.287 80.6914L152.198 71.5916C155.945 70.778 158.373 67.003 157.56 63.2565C156.746 59.5099 152.971 57.0818 149.225 57.8951L107.318 66.9939C104.607 53.2568 112.897 37.9467 126.493 34.9948Z" stroke="#2D2D2D"/>
<path d="M50.3433 51.5284C63.8108 48.6044 77.2717 57.2626 80.1958 70.7302L82.4831 81.265L33.3439 91.9342L31.0565 81.3993C28.1327 67.9328 36.7898 54.4711 50.3433 51.5284Z" stroke="#2D2D2D"/>
<path d="M85.4574 94.9626L104.058 180.63C104.459 182.479 104.582 184.936 104.445 187.392C104.309 189.848 103.916 192.26 103.31 194.025L103.309 194.025L98.8603 207.068L98.859 207.071C96.3635 214.529 91.9391 218.845 86.8982 219.94C81.8564 221.035 76.0177 218.945 70.6112 213.201L61.2404 203.162L61.2313 203.152L60.983 202.892C59.7384 201.555 58.4599 199.647 57.3793 197.608C56.2271 195.434 55.3198 193.148 54.9182 191.299L36.3181 105.632L85.4574 94.9626Z" stroke="#2D2D2D"/>
</svg>
