<svg width="18" height="18" viewBox="0 0 18 18" fill="none" xmlns="http://www.w3.org/2000/svg">
<path d="M13.9051 3.09L9.7801 1.545C9.3526 1.3875 8.6551 1.3875 8.2276 1.545L4.1026 3.09C3.3076 3.39 2.6626 4.32 2.6626 5.1675V11.2425C2.6626 11.85 3.0601 12.6525 3.5476 13.0125L7.6726 16.095C8.4001 16.6425 9.5926 16.6425 10.3201 16.095L14.4451 13.0125C14.9326 12.645 15.3301 11.85 15.3301 11.2425V5.1675C15.3376 4.32 14.6926 3.39 13.9051 3.09ZM11.6101 7.29L8.3851 10.515C8.2726 10.6275 8.1301 10.68 7.9876 10.68C7.8451 10.68 7.7026 10.6275 7.5901 10.515L6.3901 9.3C6.1726 9.0825 6.1726 8.72251 6.3901 8.505C6.6076 8.2875 6.9676 8.2875 7.1851 8.505L7.9951 9.315L10.8226 6.4875C11.0401 6.27 11.4001 6.27 11.6176 6.4875C11.8351 6.705 11.8351 7.0725 11.6101 7.29Z" fill="#727272"/>
</svg>
