<svg width="30" height="30" viewBox="0 0 30 30" fill="none" xmlns="http://www.w3.org/2000/svg">
<path d="M20.2375 2.5H9.7625C5.2125 2.5 2.5 5.2125 2.5 9.7625V20.225C2.5 24.7875 5.2125 27.5 9.7625 27.5H20.225C24.775 27.5 27.4875 24.7875 27.4875 20.2375V9.7625C27.5 5.2125 24.7875 2.5 20.2375 2.5ZM10.625 7.975C11.9125 7.975 12.975 9.025 12.975 10.325C12.975 11.625 11.925 12.675 10.625 12.675C9.325 12.675 8.275 11.6 8.275 10.3125C8.275 9.025 9.3375 7.975 10.625 7.975ZM15 23.85C11.6375 23.85 8.9 21.1125 8.9 17.75C8.9 16.875 9.6125 16.15 10.4875 16.15H19.4875C20.3625 16.15 21.075 16.8625 21.075 17.75C21.1 21.1125 18.3625 23.85 15 23.85ZM19.375 12.65C18.0875 12.65 17.025 11.6 17.025 10.3C17.025 9 18.075 7.95 19.375 7.95C20.675 7.95 21.725 9 21.725 10.3C21.725 11.6 20.6625 12.65 19.375 12.65Z" fill="#00B8EB"/>
</svg>
