<svg width="26" height="26" viewBox="0 0 26 26" fill="none" xmlns="http://www.w3.org/2000/svg">
<path d="M23.0751 11.7433C23.4976 11.7433 23.8334 11.4075 23.8334 10.985V9.97751C23.8334 5.53584 22.4792 4.18167 18.0376 4.18167H7.96258C3.52091 4.18167 2.16675 5.53584 2.16675 9.97751V10.4867C2.16675 10.9092 2.50258 11.245 2.92508 11.245C3.90008 11.245 4.69091 12.0358 4.69091 13.0108C4.69091 13.9858 3.90008 14.7658 2.92508 14.7658C2.50258 14.7658 2.16675 15.1017 2.16675 15.5242V16.0333C2.16675 20.475 3.52091 21.8292 7.96258 21.8292H18.0376C22.4792 21.8292 23.8334 20.475 23.8334 16.0333C23.8334 15.6108 23.4976 15.275 23.0751 15.275C22.1001 15.275 21.3092 14.4842 21.3092 13.5092C21.3092 12.5342 22.1001 11.7433 23.0751 11.7433ZM9.75008 9.62001C10.3459 9.62001 10.8334 10.1075 10.8334 10.7033C10.8334 11.2992 10.3567 11.7867 9.75008 11.7867C9.15425 11.7867 8.66675 11.2992 8.66675 10.7033C8.66675 10.1075 9.14341 9.62001 9.75008 9.62001ZM16.2501 17.2033C15.6434 17.2033 15.1559 16.7158 15.1559 16.12C15.1559 15.5242 15.6434 15.0367 16.2392 15.0367C16.8351 15.0367 17.3226 15.5242 17.3226 16.12C17.3226 16.7158 16.8567 17.2033 16.2501 17.2033ZM17.2251 10.27L9.93425 17.5608C9.77175 17.7233 9.56592 17.7992 9.36008 17.7992C9.15425 17.7992 8.94841 17.7233 8.78591 17.5608C8.47175 17.2467 8.47175 16.7267 8.78591 16.4125L16.0767 9.12167C16.3909 8.80751 16.9109 8.80751 17.2251 9.12167C17.5392 9.43584 17.5392 9.95584 17.2251 10.27Z" fill="#C3FF79"/>
</svg>
