<svg width="32" height="32" viewBox="0 0 32 32" fill="none" xmlns="http://www.w3.org/2000/svg">
<path d="M15.9998 2.6665C8.65317 2.6665 2.6665 8.65317 2.6665 15.9998C2.6665 23.3465 8.65317 29.3332 15.9998 29.3332C23.3465 29.3332 29.3332 23.3465 29.3332 15.9998C29.3332 8.65317 23.3465 2.6665 15.9998 2.6665ZM21.3332 16.9998H16.9998V21.3332C16.9998 21.8798 16.5465 22.3332 15.9998 22.3332C15.4532 22.3332 14.9998 21.8798 14.9998 21.3332V16.9998H10.6665C10.1198 16.9998 9.6665 16.5465 9.6665 15.9998C9.6665 15.4532 10.1198 14.9998 10.6665 14.9998H14.9998V10.6665C14.9998 10.1198 15.4532 9.6665 15.9998 9.6665C16.5465 9.6665 16.9998 10.1198 16.9998 10.6665V14.9998H21.3332C21.8798 14.9998 22.3332 15.4532 22.3332 15.9998C22.3332 16.5465 21.8798 16.9998 21.3332 16.9998Z" fill="#6041B7"/>
</svg>
