<svg width="32" height="32" viewBox="0 0 32 32" fill="none" xmlns="http://www.w3.org/2000/svg">
<path d="M15.9998 2.66663C8.65317 2.66663 2.6665 8.65329 2.6665 16C2.6665 23.3466 8.65317 29.3333 15.9998 29.3333C23.3465 29.3333 29.3332 23.3466 29.3332 16C29.3332 8.65329 23.3465 2.66663 15.9998 2.66663ZM21.3332 17H16.9998V21.3333C16.9998 21.88 16.5465 22.3333 15.9998 22.3333C15.4532 22.3333 14.9998 21.88 14.9998 21.3333V17H10.6665C10.1198 17 9.6665 16.5466 9.6665 16C9.6665 15.4533 10.1198 15 10.6665 15H14.9998V10.6666C14.9998 10.12 15.4532 9.66663 15.9998 9.66663C16.5465 9.66663 16.9998 10.12 16.9998 10.6666V15H21.3332C21.8798 15 22.3332 15.4533 22.3332 16C22.3332 16.5466 21.8798 17 21.3332 17Z" fill="#4575C9"/>
</svg>
