<svg width="34" height="36" viewBox="0 0 34 36" fill="none" xmlns="http://www.w3.org/2000/svg">
<g filter="url(#filter0_d_638_376)">
<path d="M17 2.5C10.1125 2.5 4.5 8.1125 4.5 15C4.5 21.8875 10.1125 27.5 17 27.5C23.8875 27.5 29.5 21.8875 29.5 15C29.5 8.1125 23.8875 2.5 17 2.5ZM20.4875 15.6625L16.075 20.075C15.8875 20.2625 15.65 20.35 15.4125 20.35C15.175 20.35 14.9375 20.2625 14.75 20.075C14.3875 19.7125 14.3875 19.1125 14.75 18.75L18.5 15L14.75 11.25C14.3875 10.8875 14.3875 10.2875 14.75 9.925C15.1125 9.5625 15.7125 9.5625 16.075 9.925L20.4875 14.3375C20.8625 14.7 20.8625 15.3 20.4875 15.6625Z" fill="white"/>
</g>
<defs>
<filter id="filter0_d_638_376" x="-2" y="0" width="38" height="38" filterUnits="userSpaceOnUse" color-interpolation-filters="sRGB">
<feFlood flood-opacity="0" result="BackgroundImageFix"/>
<feColorMatrix in="SourceAlpha" type="matrix" values="0 0 0 0 0 0 0 0 0 0 0 0 0 0 0 0 0 0 127 0" result="hardAlpha"/>
<feOffset dy="4"/>
<feGaussianBlur stdDeviation="2"/>
<feComposite in2="hardAlpha" operator="out"/>
<feColorMatrix type="matrix" values="0 0 0 0 0 0 0 0 0 0 0 0 0 0 0 0 0 0 0.1 0"/>
<feBlend mode="normal" in2="BackgroundImageFix" result="effect1_dropShadow_638_376"/>
<feBlend mode="normal" in="SourceGraphic" in2="effect1_dropShadow_638_376" result="shape"/>
</filter>
</defs>
</svg>
