<svg width="31" height="37" viewBox="0 0 31 37" fill="none" xmlns="http://www.w3.org/2000/svg">
<path d="M3.54584 34.0085L7.90143 26.0161C9.23636 23.5666 10.9998 20.7103 9.83835 18.1738C9.80471 18.1004 9.7684 18.0286 9.72934 17.9586C8.58519 15.907 5.66075 16.0567 3.31164 16.0567H2.52762C2.17308 16.0567 1.84196 15.8796 1.6451 15.5848L1.59434 15.5087C1.24025 14.9784 1.26948 14.28 1.66663 13.7811C1.85211 13.5481 2.13369 13.4124 2.43151 13.4124H6.85251C9.26494 13.2239 11.2029 12.581 13.2542 11.2411C16.7123 8.98213 19.0845 5.44927 21.2094 1.90722C21.9395 0.691579 23.8114 1.52286 23.3763 2.87249C23.3644 2.90934 23.3498 2.94527 23.3327 2.98L22.0745 5.53328C21.5 6.6991 20.9155 7.92724 20.9713 9.22573C20.9775 9.37061 20.9917 9.51369 21.0152 9.65596C21.534 12.7993 25.7237 13.4124 28.9095 13.4124H29.0246C29.1475 13.4124 29.2691 13.4375 29.3819 13.4863C30.4279 13.9387 30.4777 15.4035 29.4648 15.9258L29.4093 15.9544C29.2789 16.0216 29.1344 16.0567 28.9877 16.0567H28.2804C25.4347 16.0567 22.5451 16.2271 19.8898 17.2508C18.4921 17.7896 17.3188 18.434 16.2298 19.2734C13.3046 21.5284 11.5376 24.9186 9.75852 28.1554L5.87182 35.2266C5.82485 35.3121 5.76329 35.3902 5.69145 35.4561C4.76911 36.3028 3.26976 35.5479 3.44638 34.3084C3.46136 34.2033 3.49504 34.1017 3.54584 34.0085Z" fill="black" stroke="white"/>
</svg>
