<svg width="32" height="32" viewBox="0 0 32 32" fill="none" xmlns="http://www.w3.org/2000/svg">
<path d="M21.3332 11.6666C20.7865 11.6666 20.3332 11.2133 20.3332 10.6666V5.99996C20.3332 4.55996 19.4398 3.66663 17.9998 3.66663H13.9998C12.5598 3.66663 11.6665 4.55996 11.6665 5.99996V10.6666C11.6665 11.2133 11.2132 11.6666 10.6665 11.6666C10.1198 11.6666 9.6665 11.2133 9.6665 10.6666V5.99996C9.6665 3.45329 11.4532 1.66663 13.9998 1.66663H17.9998C20.5465 1.66663 22.3332 3.45329 22.3332 5.99996V10.6666C22.3332 11.2133 21.8798 11.6666 21.3332 11.6666Z" fill="#4AC4A3"/>
<path d="M10.6668 23.7066C10.1201 23.7066 9.66678 23.2533 9.66678 22.7066C9.66678 22.1466 10.1201 21.7066 10.6668 21.7066H26.3468C26.7468 21.7066 27.0535 21.36 27.0135 20.96L26.1068 13.3733C25.7868 10.7866 25.3335 8.66663 20.8001 8.66663H11.2001C6.66678 8.66663 6.21345 10.7866 5.90678 13.3733L4.70678 23.3733C4.32012 26.6533 5.33345 29.3333 10.0135 29.3333H21.9868C26.2001 29.3333 27.4401 27.16 27.3735 24.3333C27.3601 23.9733 27.0668 23.7066 26.7068 23.7066H10.6668Z" fill="#4AC4A3"/>
</svg>
