<svg width="351" height="233" viewBox="0 0 351 233" fill="none" xmlns="http://www.w3.org/2000/svg">
<path d="M0 20V47H112V28H103.621C97.8536 28 92.367 25.5104 88.5693 21.17L76.0218 6.82995C72.224 2.48963 66.7375 0 60.9702 0H20C8.95431 0 0 8.95431 0 20Z" fill="white"/>
<g clip-path="url(#clip0_576_654)">
<rect y="233" width="205" height="351" rx="20" transform="rotate(-90 0 233)" fill="#F4F4F4"/>
<g filter="url(#filter0_f_576_654)">
<path d="M223.946 244.184C325.934 250.415 403.308 217.768 412.69 210.656V296H-59.9995V169C-21.0916 208.624 121.957 237.953 223.946 244.184Z" fill="#4CB8E4"/>
</g>
<g filter="url(#filter1_d_576_654)">
<path d="M135.175 167.927L144.007 151.8C146.732 146.824 150.352 141 147.942 135.864C147.88 135.733 147.814 135.604 147.744 135.478C145.416 131.313 139.473 131.626 134.702 131.626H133.095C132.38 131.626 131.712 131.27 131.314 130.676L131.211 130.523C130.49 129.448 130.55 128.03 131.358 127.02C131.733 126.551 132.301 126.278 132.901 126.278H141.894C146.803 125.897 150.746 124.594 154.921 121.877C161.93 117.314 166.752 110.175 171.071 103.012C172.557 100.549 176.361 102.227 175.475 104.964C175.45 105.039 175.42 105.112 175.385 105.182L172.84 110.323C171.665 112.695 170.464 115.196 170.588 117.84C170.601 118.113 170.628 118.384 170.671 118.653C171.703 125.046 180.244 126.278 186.72 126.278H186.957C187.204 126.278 187.449 126.329 187.676 126.427C189.797 127.339 189.898 130.309 187.843 131.363L187.732 131.421C187.469 131.555 187.178 131.626 186.883 131.626H185.44C179.657 131.626 173.786 131.97 168.386 134.041C164.252 135.628 161.083 137.667 158.003 140.717C154.539 144.146 152.047 148.402 149.691 152.668L139.902 170.39C139.806 170.564 139.682 170.721 139.535 170.855L139.469 170.915C137.597 172.626 134.612 171.047 134.971 168.537C135.002 168.323 135.071 168.116 135.175 167.927Z" fill="white"/>
<path d="M105.88 147.448C102.381 147.448 99.3947 146.723 96.92 145.272C94.488 143.821 92.632 141.816 91.352 139.256C90.1147 136.653 89.496 133.645 89.496 130.232C89.496 126.819 90.136 123.811 91.416 121.208C92.7387 118.563 94.616 116.493 97.048 115C99.5227 113.507 102.488 112.76 105.944 112.76C108.504 112.76 110.744 113.229 112.664 114.168C114.584 115.064 116.184 116.301 117.464 117.88C118.787 119.459 119.768 121.251 120.408 123.256C121.048 125.261 121.347 127.373 121.304 129.592C121.261 130.104 121.219 130.616 121.176 131.128C121.133 131.597 121.069 132.109 120.984 132.664H97.304C97.432 134.157 97.816 135.523 98.456 136.76C99.1387 137.997 100.077 138.979 101.272 139.704C102.509 140.429 104.045 140.792 105.88 140.792C106.947 140.792 107.971 140.664 108.952 140.408C109.933 140.109 110.787 139.683 111.512 139.128C112.28 138.573 112.792 137.869 113.048 137.016H120.856C120.301 139.448 119.277 141.432 117.784 142.968C116.291 144.504 114.499 145.635 112.408 146.36C110.36 147.085 108.184 147.448 105.88 147.448ZM97.432 126.84H113.688C113.688 125.432 113.368 124.152 112.728 123C112.088 121.848 111.171 120.952 109.976 120.312C108.824 119.629 107.416 119.288 105.752 119.288C103.96 119.288 102.467 119.651 101.272 120.376C100.077 121.101 99.16 122.04 98.52 123.192C97.88 124.344 97.5173 125.56 97.432 126.84Z" fill="white"/>
<path d="M199.776 147V113.272H207.584V147H199.776ZM203.68 109.368C202.187 109.368 200.992 108.92 200.096 108.024C199.2 107.128 198.752 105.955 198.752 104.504C198.752 103.096 199.221 101.944 200.16 101.048C201.099 100.109 202.272 99.64 203.68 99.64C205.045 99.64 206.219 100.088 207.2 100.984C208.181 101.88 208.672 103.053 208.672 104.504C208.672 105.955 208.203 107.128 207.264 108.024C206.325 108.92 205.131 109.368 203.68 109.368ZM215.151 147V101.752H222.959V147H215.151ZM245.63 147.448C242.131 147.448 239.145 146.723 236.67 145.272C234.238 143.821 232.382 141.816 231.102 139.256C229.865 136.653 229.246 133.645 229.246 130.232C229.246 126.819 229.886 123.811 231.166 121.208C232.489 118.563 234.366 116.493 236.798 115C239.273 113.507 242.238 112.76 245.694 112.76C248.254 112.76 250.494 113.229 252.414 114.168C254.334 115.064 255.934 116.301 257.214 117.88C258.537 119.459 259.518 121.251 260.158 123.256C260.798 125.261 261.097 127.373 261.054 129.592C261.011 130.104 260.969 130.616 260.926 131.128C260.883 131.597 260.819 132.109 260.734 132.664H237.054C237.182 134.157 237.566 135.523 238.206 136.76C238.889 137.997 239.827 138.979 241.022 139.704C242.259 140.429 243.795 140.792 245.63 140.792C246.697 140.792 247.721 140.664 248.702 140.408C249.683 140.109 250.537 139.683 251.262 139.128C252.03 138.573 252.542 137.869 252.798 137.016H260.606C260.051 139.448 259.027 141.432 257.534 142.968C256.041 144.504 254.249 145.635 252.158 146.36C250.11 147.085 247.934 147.448 245.63 147.448ZM237.182 126.84H253.438C253.438 125.432 253.118 124.152 252.478 123C251.838 121.848 250.921 120.952 249.726 120.312C248.574 119.629 247.166 119.288 245.502 119.288C243.71 119.288 242.217 119.651 241.022 120.376C239.827 121.101 238.91 122.04 238.27 123.192C237.63 124.344 237.267 125.56 237.182 126.84Z" fill="white"/>
</g>
</g>
<rect x="3" y="230" width="199" height="345" rx="17" transform="rotate(-90 3 230)" stroke="white" stroke-width="6"/>
<defs>
<filter id="filter0_f_576_654" x="-132" y="97" width="616.69" height="271" filterUnits="userSpaceOnUse" color-interpolation-filters="sRGB">
<feFlood flood-opacity="0" result="BackgroundImageFix"/>
<feBlend mode="normal" in="SourceGraphic" in2="BackgroundImageFix" result="shape"/>
<feGaussianBlur stdDeviation="36" result="effect1_foregroundBlur_576_654"/>
</filter>
<filter id="filter1_d_576_654" x="85.4961" y="99.6399" width="179.622" height="79.9912" filterUnits="userSpaceOnUse" color-interpolation-filters="sRGB">
<feFlood flood-opacity="0" result="BackgroundImageFix"/>
<feColorMatrix in="SourceAlpha" type="matrix" values="0 0 0 0 0 0 0 0 0 0 0 0 0 0 0 0 0 0 127 0" result="hardAlpha"/>
<feOffset dy="4"/>
<feGaussianBlur stdDeviation="2"/>
<feComposite in2="hardAlpha" operator="out"/>
<feColorMatrix type="matrix" values="0 0 0 0 0 0 0 0 0 0 0 0 0 0 0 0 0 0 0.2 0"/>
<feBlend mode="normal" in2="BackgroundImageFix" result="effect1_dropShadow_576_654"/>
<feBlend mode="normal" in="SourceGraphic" in2="effect1_dropShadow_576_654" result="shape"/>
</filter>
<clipPath id="clip0_576_654">
<rect y="233" width="205" height="351" rx="20" transform="rotate(-90 0 233)" fill="white"/>
</clipPath>
</defs>
</svg>
