<svg width="351" height="233" viewBox="0 0 351 233" fill="none" xmlns="http://www.w3.org/2000/svg">
<path d="M0 20V47H288V28H220.361C215.61 28 211.013 26.3081 207.395 23.2274L185.722 4.77257C182.104 1.69189 177.508 0 172.756 0H20C8.95431 0 0 8.95431 0 20Z" fill="white"/>
<g clip-path="url(#clip0_645_387)">
<rect y="233" width="205" height="351" rx="20" transform="rotate(-90 0 233)" fill="#F4F4F4"/>
<g filter="url(#filter0_f_645_387)">
<path d="M128.745 244.423C26.7566 250.674 -50.6179 217.923 -60 210.788V296.404H412.691V169C373.783 208.75 230.734 238.172 128.745 244.423Z" fill="#E94196"/>
</g>
<g filter="url(#filter1_d_645_387)">
<path d="M226.5 209.16C225.06 209.16 223.84 208.86 222.84 208.26C221.84 207.647 221.08 206.8 220.56 205.72C220.053 204.627 219.8 203.367 219.8 201.94C219.8 200.86 219.94 199.88 220.22 199C220.513 198.12 220.94 197.36 221.5 196.72C222.073 196.067 222.773 195.567 223.6 195.22C224.427 194.86 225.38 194.68 226.46 194.68C227.513 194.68 228.453 194.853 229.28 195.2C230.12 195.533 230.807 196.027 231.34 196.68C231.887 197.333 232.253 198.133 232.44 199.08H229.86C229.753 198.627 229.547 198.247 229.24 197.94C228.947 197.633 228.573 197.4 228.12 197.24C227.667 197.08 227.147 197 226.56 197C225.8 197 225.153 197.133 224.62 197.4C224.087 197.667 223.653 198.033 223.32 198.5C222.987 198.953 222.74 199.48 222.58 200.08C222.433 200.667 222.36 201.293 222.36 201.96C222.36 202.827 222.5 203.633 222.78 204.38C223.073 205.127 223.527 205.727 224.14 206.18C224.767 206.62 225.58 206.84 226.58 206.84C227.287 206.84 227.907 206.72 228.44 206.48C228.987 206.24 229.413 205.893 229.72 205.44C230.04 204.973 230.213 204.4 230.24 203.72H226.12V201.56H232.76V202.48C232.76 203.853 232.52 205.04 232.04 206.04C231.56 207.04 230.853 207.813 229.92 208.36C229 208.893 227.86 209.16 226.5 209.16ZM234.731 209V198.46H237.171V209H234.731ZM235.951 197.24C235.484 197.24 235.111 197.1 234.831 196.82C234.551 196.54 234.411 196.173 234.411 195.72C234.411 195.28 234.557 194.92 234.851 194.64C235.144 194.347 235.511 194.2 235.951 194.2C236.377 194.2 236.744 194.34 237.051 194.62C237.357 194.9 237.511 195.267 237.511 195.72C237.511 196.173 237.364 196.54 237.071 196.82C236.777 197.1 236.404 197.24 235.951 197.24ZM240.475 209V200.62H238.835V198.46H240.475V197.46C240.475 196.66 240.595 196.007 240.835 195.5C241.075 194.98 241.455 194.6 241.975 194.36C242.509 194.12 243.189 194 244.015 194H245.575V196.16H244.295C243.935 196.16 243.655 196.22 243.455 196.34C243.255 196.46 243.109 196.64 243.015 196.88C242.935 197.107 242.895 197.387 242.895 197.72V198.46H245.575V200.62H242.895V209H240.475ZM251.294 209.12C250.134 209.12 249.287 208.8 248.754 208.16C248.221 207.52 247.954 206.633 247.954 205.5V200.62H246.334V198.46H247.954V195.5H250.394V198.46H253.594V200.62H250.394V205.04C250.394 205.387 250.434 205.7 250.514 205.98C250.594 206.26 250.741 206.48 250.954 206.64C251.167 206.8 251.461 206.887 251.834 206.9C252.154 206.9 252.427 206.847 252.654 206.74C252.881 206.633 253.067 206.513 253.214 206.38L254.034 208.24C253.781 208.453 253.494 208.627 253.174 208.76C252.867 208.893 252.554 208.987 252.234 209.04C251.914 209.093 251.601 209.12 251.294 209.12ZM265.562 209.14C264.469 209.14 263.549 208.92 262.802 208.48C262.056 208.027 261.489 207.393 261.102 206.58C260.716 205.767 260.522 204.827 260.522 203.76C260.522 202.693 260.722 201.753 261.122 200.94C261.522 200.113 262.109 199.467 262.882 199C263.656 198.533 264.596 198.3 265.702 198.3C266.516 198.3 267.236 198.44 267.862 198.72C268.502 199 269.016 199.413 269.402 199.96C269.802 200.493 270.056 201.16 270.162 201.96H267.762C267.602 201.453 267.336 201.087 266.962 200.86C266.602 200.62 266.169 200.5 265.662 200.5C264.982 200.5 264.442 200.667 264.042 201C263.656 201.32 263.376 201.727 263.202 202.22C263.029 202.713 262.942 203.227 262.942 203.76C262.942 204.32 263.036 204.847 263.222 205.34C263.409 205.82 263.696 206.207 264.082 206.5C264.482 206.793 264.996 206.94 265.622 206.94C266.129 206.94 266.582 206.827 266.982 206.6C267.396 206.373 267.662 206.007 267.782 205.5H270.262C270.169 206.313 269.896 206.993 269.442 207.54C269.002 208.073 268.442 208.473 267.762 208.74C267.082 209.007 266.349 209.14 265.562 209.14ZM275.454 209.14C274.961 209.14 274.494 209.073 274.054 208.94C273.614 208.807 273.221 208.613 272.874 208.36C272.527 208.093 272.247 207.767 272.034 207.38C271.834 206.98 271.734 206.513 271.734 205.98C271.734 205.3 271.867 204.747 272.134 204.32C272.401 203.88 272.761 203.547 273.214 203.32C273.681 203.093 274.207 202.94 274.794 202.86C275.381 202.767 275.994 202.72 276.634 202.72H278.694C278.694 202.253 278.621 201.853 278.474 201.52C278.327 201.173 278.094 200.9 277.774 200.7C277.467 200.5 277.067 200.4 276.574 200.4C276.254 200.4 275.954 200.44 275.674 200.52C275.407 200.587 275.174 200.7 274.974 200.86C274.787 201.007 274.654 201.2 274.574 201.44H272.074C272.167 200.893 272.354 200.427 272.634 200.04C272.927 199.64 273.281 199.313 273.694 199.06C274.121 198.807 274.587 198.62 275.094 198.5C275.601 198.367 276.114 198.3 276.634 198.3C278.167 198.3 279.281 198.74 279.974 199.62C280.681 200.5 281.034 201.733 281.034 203.32V209H278.874L278.814 207.64C278.507 208.093 278.141 208.427 277.714 208.64C277.287 208.853 276.874 208.987 276.474 209.04C276.074 209.107 275.734 209.14 275.454 209.14ZM275.934 207.16C276.467 207.16 276.941 207.06 277.354 206.86C277.767 206.66 278.094 206.38 278.334 206.02C278.587 205.66 278.714 205.247 278.714 204.78V204.44H276.794C276.474 204.44 276.154 204.453 275.834 204.48C275.527 204.493 275.247 204.547 274.994 204.64C274.741 204.72 274.534 204.847 274.374 205.02C274.227 205.193 274.154 205.44 274.154 205.76C274.154 206.08 274.234 206.34 274.394 206.54C274.567 206.74 274.787 206.893 275.054 207C275.334 207.107 275.627 207.16 275.934 207.16ZM283.364 209V198.46H285.584L285.724 199.84C285.99 199.44 286.29 199.133 286.624 198.92C286.97 198.693 287.337 198.533 287.724 198.44C288.124 198.347 288.524 198.3 288.924 198.3C289.07 198.3 289.204 198.3 289.324 198.3C289.457 198.3 289.564 198.307 289.644 198.32V200.64H289.004C288.31 200.64 287.724 200.773 287.244 201.04C286.764 201.307 286.404 201.687 286.164 202.18C285.924 202.673 285.804 203.28 285.804 204V209H283.364ZM295.183 209.14C294.116 209.14 293.236 208.9 292.543 208.42C291.85 207.927 291.33 207.273 290.983 206.46C290.65 205.647 290.483 204.74 290.483 203.74C290.483 202.7 290.663 201.773 291.023 200.96C291.383 200.133 291.923 199.487 292.643 199.02C293.363 198.54 294.263 198.3 295.343 198.3C295.743 198.3 296.13 198.347 296.503 198.44C296.89 198.52 297.25 198.653 297.583 198.84C297.93 199.013 298.216 199.247 298.443 199.54V194.86H300.883V209H298.523L298.483 207.68C298.23 208.013 297.93 208.287 297.583 208.5C297.25 208.713 296.876 208.873 296.463 208.98C296.05 209.087 295.623 209.14 295.183 209.14ZM295.643 206.94C296.283 206.94 296.81 206.793 297.223 206.5C297.636 206.193 297.943 205.793 298.143 205.3C298.356 204.793 298.463 204.26 298.463 203.7C298.463 203.113 298.356 202.58 298.143 202.1C297.943 201.62 297.636 201.233 297.223 200.94C296.81 200.647 296.283 200.5 295.643 200.5C294.963 200.5 294.423 200.653 294.023 200.96C293.636 201.267 293.35 201.673 293.163 202.18C292.99 202.673 292.903 203.207 292.903 203.78C292.903 204.207 292.95 204.613 293.043 205C293.15 205.373 293.31 205.707 293.523 206C293.736 206.293 294.016 206.527 294.363 206.7C294.71 206.86 295.136 206.94 295.643 206.94Z" fill="white"/>
</g>
<g filter="url(#filter2_d_645_387)">
<path d="M24.2851 88.8552L29.9024 78.559C31.6267 75.3986 33.9073 71.7103 32.4015 68.4402C32.359 68.3479 32.3133 68.2578 32.2642 68.1698C30.7875 65.5231 27.0141 65.7175 23.9833 65.7175H22.9697C22.5131 65.7175 22.0866 65.4896 21.8329 65.11L21.7674 65.012C21.3103 64.3282 21.348 63.4272 21.8606 62.784C22.0997 62.484 22.4624 62.3093 22.8459 62.3093H28.5516C31.6654 62.0663 34.1666 61.2372 36.8142 59.5092C41.2738 56.5985 44.3348 52.0457 47.0767 47.4804C48.0192 45.9129 50.4344 46.9838 49.8726 48.7244C49.8573 48.772 49.8385 48.8184 49.8163 48.8632L48.1944 52.1509C47.4521 53.6556 46.6961 55.2409 46.7696 56.9171C46.7776 57.1011 46.7957 57.2828 46.8254 57.4635C47.4915 61.5201 52.9014 62.3093 57.0124 62.3093H57.1613C57.3195 62.3093 57.4761 62.3417 57.6214 62.4044C58.9704 62.9872 59.0345 64.8763 57.7281 65.5491L57.6567 65.5859C57.4888 65.6724 57.3027 65.7175 57.1138 65.7175H56.2005C52.5286 65.7175 48.8002 65.937 45.3736 67.2567C43.5731 67.9501 42.0612 68.779 40.6581 69.8584C36.8784 72.7659 34.5952 77.1426 32.2963 81.3204L27.2863 90.4252C27.2256 90.5355 27.1461 90.6364 27.0533 90.7214C25.8634 91.8125 23.9286 90.8404 24.1566 89.2422C24.1759 89.1066 24.2195 88.9755 24.2851 88.8552Z" fill="white"/>
</g>
</g>
<rect x="3" y="230" width="199" height="345" rx="17" transform="rotate(-90 3 230)" stroke="white" stroke-width="6"/>
<defs>
<filter id="filter0_f_645_387" x="-132" y="97" width="616.691" height="271.404" filterUnits="userSpaceOnUse" color-interpolation-filters="sRGB">
<feFlood flood-opacity="0" result="BackgroundImageFix"/>
<feBlend mode="normal" in="SourceGraphic" in2="BackgroundImageFix" result="shape"/>
<feGaussianBlur stdDeviation="36" result="effect1_foregroundBlur_645_387"/>
</filter>
<filter id="filter1_d_645_387" x="215.8" y="194" width="89.083" height="23.1599" filterUnits="userSpaceOnUse" color-interpolation-filters="sRGB">
<feFlood flood-opacity="0" result="BackgroundImageFix"/>
<feColorMatrix in="SourceAlpha" type="matrix" values="0 0 0 0 0 0 0 0 0 0 0 0 0 0 0 0 0 0 127 0" result="hardAlpha"/>
<feOffset dy="4"/>
<feGaussianBlur stdDeviation="2"/>
<feComposite in2="hardAlpha" operator="out"/>
<feColorMatrix type="matrix" values="0 0 0 0 0 0 0 0 0 0 0 0 0 0 0 0 0 0 0.25 0"/>
<feBlend mode="normal" in2="BackgroundImageFix" result="effect1_dropShadow_645_387"/>
<feBlend mode="normal" in="SourceGraphic" in2="effect1_dropShadow_645_387" result="shape"/>
</filter>
<filter id="filter2_d_645_387" x="17.4482" y="46.7192" width="45.2236" height="52.4661" filterUnits="userSpaceOnUse" color-interpolation-filters="sRGB">
<feFlood flood-opacity="0" result="BackgroundImageFix"/>
<feColorMatrix in="SourceAlpha" type="matrix" values="0 0 0 0 0 0 0 0 0 0 0 0 0 0 0 0 0 0 127 0" result="hardAlpha"/>
<feOffset dy="4"/>
<feGaussianBlur stdDeviation="2"/>
<feComposite in2="hardAlpha" operator="out"/>
<feColorMatrix type="matrix" values="0 0 0 0 0 0 0 0 0 0 0 0 0 0 0 0 0 0 0.25 0"/>
<feBlend mode="normal" in2="BackgroundImageFix" result="effect1_dropShadow_645_387"/>
<feBlend mode="normal" in="SourceGraphic" in2="effect1_dropShadow_645_387" result="shape"/>
</filter>
<clipPath id="clip0_645_387">
<rect y="233" width="205" height="351" rx="20" transform="rotate(-90 0 233)" fill="white"/>
</clipPath>
</defs>
</svg>
