<svg width="90" height="45" viewBox="0 0 90 45" fill="none" xmlns="http://www.w3.org/2000/svg">
<path d="M24.5458 41.0085L28.9014 33.0161C30.2364 30.5666 31.9998 27.7103 30.8384 25.1738C30.8047 25.1004 30.7684 25.0286 30.7293 24.9586C29.5852 22.907 26.6607 23.0567 24.3116 23.0567H23.5276C23.1731 23.0567 22.842 22.8796 22.6451 22.5848L22.5943 22.5087C22.2403 21.9784 22.2695 21.28 22.6666 20.7811C22.8521 20.5481 23.1337 20.4124 23.4315 20.4124H27.8525C30.2649 20.2239 32.2029 19.581 34.2542 18.2411C37.7123 15.9821 40.0845 12.4493 42.2094 8.90722C42.9395 7.69158 44.8114 8.52286 44.3763 9.87249C44.3644 9.90934 44.3498 9.94527 44.3327 9.98L43.0745 12.5333C42.5 13.6991 41.9155 14.9272 41.9713 16.2257C41.9775 16.3706 41.9917 16.5137 42.0152 16.656C42.534 19.7993 46.7237 20.4124 49.9095 20.4124H50.0246C50.1475 20.4124 50.2691 20.4375 50.3819 20.4863C51.4279 20.9387 51.4777 22.4035 50.4648 22.9258L50.4093 22.9544C50.2789 23.0216 50.1344 23.0567 49.9877 23.0567H49.2804C46.4347 23.0567 43.5451 23.2271 40.8898 24.2508C39.4921 24.7896 38.3188 25.434 37.2298 26.2734C34.3046 28.5284 32.5376 31.9186 30.7585 35.1554L26.8718 42.2266C26.8248 42.3121 26.7633 42.3902 26.6914 42.4561C25.7691 43.3028 24.2698 42.5479 24.4464 41.3084C24.4614 41.2033 24.495 41.1017 24.5458 41.0085Z" fill="black"/>
<path d="M9.44 31.224C7.69067 31.224 6.19733 30.8613 4.96 30.136C3.744 29.4107 2.816 28.408 2.176 27.128C1.55733 25.8267 1.248 24.3227 1.248 22.616C1.248 20.9093 1.568 19.4053 2.208 18.104C2.86933 16.7813 3.808 15.7467 5.024 15C6.26133 14.2533 7.744 13.88 9.472 13.88C10.752 13.88 11.872 14.1147 12.832 14.584C13.792 15.032 14.592 15.6507 15.232 16.44C15.8933 17.2293 16.384 18.1253 16.704 19.128C17.024 20.1307 17.1733 21.1867 17.152 22.296C17.1307 22.552 17.1093 22.808 17.088 23.064C17.0667 23.2987 17.0347 23.5547 16.992 23.832H5.152C5.216 24.5787 5.408 25.2613 5.728 25.88C6.06933 26.4987 6.53867 26.9893 7.136 27.352C7.75467 27.7147 8.52267 27.896 9.44 27.896C9.97333 27.896 10.4853 27.832 10.976 27.704C11.4667 27.5547 11.8933 27.3413 12.256 27.064C12.64 26.7867 12.896 26.4347 13.024 26.008H16.928C16.6507 27.224 16.1387 28.216 15.392 28.984C14.6453 29.752 13.7493 30.3173 12.704 30.68C11.68 31.0427 10.592 31.224 9.44 31.224ZM5.216 20.92H13.344C13.344 20.216 13.184 19.576 12.864 19C12.544 18.424 12.0853 17.976 11.488 17.656C10.912 17.3147 10.208 17.144 9.376 17.144C8.48 17.144 7.73333 17.3253 7.136 17.688C6.53867 18.0507 6.08 18.52 5.76 19.096C5.44 19.672 5.25867 20.28 5.216 20.92Z" fill="black"/>
<path d="M57.888 31V14.136H61.792V31H57.888ZM59.84 12.184C59.0933 12.184 58.496 11.96 58.048 11.512C57.6 11.064 57.376 10.4773 57.376 9.752C57.376 9.048 57.6107 8.472 58.08 8.024C58.5493 7.55467 59.136 7.32 59.84 7.32C60.5227 7.32 61.1093 7.544 61.6 7.992C62.0907 8.44 62.336 9.02667 62.336 9.752C62.336 10.4773 62.1013 11.064 61.632 11.512C61.1627 11.96 60.5653 12.184 59.84 12.184ZM65.5755 31V8.376H69.4795V31H65.5755ZM80.815 31.224C79.0657 31.224 77.5723 30.8613 76.335 30.136C75.119 29.4107 74.191 28.408 73.551 27.128C72.9323 25.8267 72.623 24.3227 72.623 22.616C72.623 20.9093 72.943 19.4053 73.583 18.104C74.2443 16.7813 75.183 15.7467 76.399 15C77.6363 14.2533 79.119 13.88 80.847 13.88C82.127 13.88 83.247 14.1147 84.207 14.584C85.167 15.032 85.967 15.6507 86.607 16.44C87.2683 17.2293 87.759 18.1253 88.079 19.128C88.399 20.1307 88.5483 21.1867 88.527 22.296C88.5057 22.552 88.4843 22.808 88.463 23.064C88.4417 23.2987 88.4097 23.5547 88.367 23.832H76.527C76.591 24.5787 76.783 25.2613 77.103 25.88C77.4443 26.4987 77.9137 26.9893 78.511 27.352C79.1297 27.7147 79.8977 27.896 80.815 27.896C81.3483 27.896 81.8603 27.832 82.351 27.704C82.8417 27.5547 83.2683 27.3413 83.631 27.064C84.015 26.7867 84.271 26.4347 84.399 26.008H88.303C88.0257 27.224 87.5137 28.216 86.767 28.984C86.0203 29.752 85.1243 30.3173 84.079 30.68C83.055 31.0427 81.967 31.224 80.815 31.224ZM76.591 20.92H84.719C84.719 20.216 84.559 19.576 84.239 19C83.919 18.424 83.4603 17.976 82.863 17.656C82.287 17.3147 81.583 17.144 80.751 17.144C79.855 17.144 79.1083 17.3253 78.511 17.688C77.9137 18.0507 77.455 18.52 77.135 19.096C76.815 19.672 76.6337 20.28 76.591 20.92Z" fill="black"/>
</svg>
