<svg width="60" height="71" viewBox="0 0 60 71" fill="none" xmlns="http://www.w3.org/2000/svg">
<path d="M5.17465 66.9268L14.007 50.7998C16.732 45.824 20.3523 40.0001 17.942 34.8645C17.8803 34.733 17.8143 34.6043 17.7439 34.4783C15.4162 30.313 9.4734 30.6258 4.70185 30.6258H3.09466C2.38007 30.6258 1.71245 30.2697 1.3143 29.6764L1.21127 29.5228C0.49033 28.4483 0.549755 27.0303 1.35807 26.0199C1.73304 25.5512 2.30075 25.2784 2.901 25.2784H11.8938C16.8031 24.8968 20.7456 23.5936 24.9205 20.8765C31.9305 16.3143 36.7524 9.17513 41.0708 2.01237C42.5575 -0.450816 46.3613 1.22659 45.4746 3.9636C45.4503 4.03863 45.4205 4.11177 45.3855 4.18244L42.8395 9.32331C41.6649 11.6953 40.4644 14.1958 40.588 16.8398C40.6008 17.1133 40.6278 17.3837 40.6712 17.6526C41.7027 24.046 50.2437 25.2784 56.7197 25.2784H56.9569C57.2043 25.2784 57.4491 25.3288 57.6763 25.4266C59.7973 26.3393 59.8979 29.3092 57.8434 30.3633L57.7315 30.4207C57.4689 30.5555 57.1779 30.6258 56.8826 30.6258H55.4402C49.6572 30.6258 43.7856 30.9697 38.3864 33.0414C34.2515 34.628 31.0833 36.6668 28.0026 39.7169C24.5395 43.1456 22.0472 47.4023 19.6908 51.6681L9.90157 69.3902C9.80559 69.5639 9.68188 69.7209 9.53533 69.8547L9.46914 69.9152C7.59662 71.6257 4.61187 70.0474 4.97138 67.5368C5.00201 67.323 5.07086 67.1163 5.17465 66.9268Z" fill="black"/>
</svg>
