<svg width="69" height="69" viewBox="0 0 69 69" fill="none" xmlns="http://www.w3.org/2000/svg">
<rect width="69" height="69" rx="10" fill="black"/>
<path d="M29.6047 44.7907V50H19V44.575C19 43.607 19.1313 42.6435 19.3904 41.7108L19.4186 41.6094C19.7567 40.3922 20.3193 39.2487 21.0773 38.238C21.7953 37.2807 22.677 36.458 23.6817 35.8079L23.7382 35.7713C24.788 35.092 25.9506 34.6053 27.1713 34.334L27.4046 34.2822C28.2486 34.0946 29.1106 34 29.9753 34H45.6047L40.2093 44.7907H29.6047Z" fill="white"/>
<path d="M45.6047 28.6047H32.9535C30.5902 28.6047 28.6744 30.5205 28.6744 32.8837L27.4536 32.9776C26.6581 33.0388 25.8731 33.1973 25.1162 33.4496L25.0881 33.459C24.0146 33.8168 23.0128 34.3618 22.1292 35.0687C21.1683 35.8374 20.3643 36.7838 19.761 37.8563L19 39.2093V18H51L45.6047 28.6047Z" fill="white"/>
</svg>
