<svg width="32" height="32" viewBox="0 0 32 32" fill="none" xmlns="http://www.w3.org/2000/svg">
<path d="M10.6047 26.7907V32H0V26.575C0 25.607 0.131339 24.6435 0.390425 23.7108L0.418565 23.6094C0.7567 22.3922 1.31925 21.2487 2.07728 20.238C2.79529 19.2807 3.67703 18.458 4.68173 17.8079L4.73816 17.7713C5.78803 17.092 6.95061 16.6053 8.17132 16.334L8.40456 16.2822C9.2486 16.0946 10.1106 16 10.9753 16H26.6047L21.2093 26.7907H10.6047Z" fill="white"/>
<path d="M26.6047 10.6047H13.9535C11.5902 10.6047 9.67442 12.5205 9.67442 14.8837L8.45356 14.9776C7.65806 15.0388 6.87308 15.1973 6.11618 15.4496L6.08813 15.459C5.01459 15.8168 4.01284 16.3618 3.1292 17.0687C2.16832 17.8374 1.36432 18.7838 0.761045 19.8563L0 21.2093V0H32L26.6047 10.6047Z" fill="white"/>
</svg>
