<svg width="141" height="141" viewBox="0 0 141 141" fill="none" xmlns="http://www.w3.org/2000/svg">
<path d="M46.7267 118.047V141H0V116.121C0 112.503 0.490905 108.901 1.45928 105.415L2.08121 103.176C3.41456 98.3762 5.63284 93.8674 8.62192 89.882L9.65562 88.5037C12.4869 84.7287 15.9638 81.4844 19.9256 78.9209L21.8367 77.6843C25.8283 75.1015 30.2484 73.251 34.8896 72.2196L38.3416 71.4525C41.1906 70.8194 44.1003 70.5 47.0188 70.5H117.227L93.4535 118.047H46.7267Z" fill="white"/>
<path d="M117.227 46.7267H61.4826C51.0694 46.7267 42.6279 55.1683 42.6279 65.5814L36.8806 66.0235C33.6198 66.2743 30.402 66.9241 27.2994 67.9583L26.4424 68.244C21.9657 69.7362 17.7884 72.0088 14.1037 74.9566L13.4444 75.484C9.43749 78.6895 6.08481 82.636 3.56914 87.1084L0 93.4535V0H141L117.227 46.7267Z" fill="white"/>
</svg>
