<svg width="24" height="24" viewBox="0 0 24 24" fill="none" xmlns="http://www.w3.org/2000/svg">
<path d="M6.70997 4.14004L6.77997 7.93004C6.78997 8.45004 6.45997 9.14004 6.03997 9.45004L3.55997 11.33C1.96997 12.53 2.22997 14 4.12997 14.6L7.35997 15.61C7.89997 15.78 8.46997 16.37 8.60997 16.92L9.37997 19.86C9.98997 22.18 11.51 22.41 12.77 20.37L14.53 17.52C14.85 17 15.61 16.61 16.21 16.64L19.55 16.81C21.94 16.93 22.62 15.55 21.06 13.73L19.08 11.43C18.71 11 18.54 10.2 18.71 9.66004L19.73 6.42004C20.32 4.52004 19.26 3.47004 17.37 4.09004L14.42 5.06004C13.92 5.22004 13.17 5.11004 12.75 4.80004L9.66997 2.58004C7.99997 1.39004 6.66997 2.09004 6.70997 4.14004Z" fill="black"/>
<path d="M2.56005 20.4699L5.59005 17.4399C5.88005 17.1499 6.36005 17.1499 6.65005 17.4399C6.94005 17.7299 6.94005 18.2099 6.65005 18.4999L3.62005 21.5299C3.47005 21.6799 3.28005 21.7499 3.09005 21.7499C2.90005 21.7499 2.71005 21.6799 2.56005 21.5299C2.27005 21.2399 2.27005 20.7599 2.56005 20.4699Z" fill="black"/>
</svg>
