<svg width="190" height="190" viewBox="0 0 190 190" fill="none" xmlns="http://www.w3.org/2000/svg">
<path d="M146.221 133.238L149.308 158.254C150.1 164.825 143.054 169.417 137.433 166.013L110.042 149.704C108.142 148.596 107.667 146.221 108.696 144.321C112.654 137.038 114.792 128.804 114.792 120.571C114.792 91.5959 89.9333 68.0042 59.375 68.0042C53.1208 68.0042 47.025 68.9542 41.325 70.8542C38.3958 71.8042 35.5458 69.1125 36.2583 66.1042C43.4625 37.2875 71.1709 15.8334 104.263 15.8334C142.896 15.8334 174.167 45.0459 174.167 81.0667C174.167 102.442 163.163 121.363 146.221 133.238Z" fill="white"/>
<path d="M102.917 120.571C102.917 129.992 99.4334 138.7 93.575 145.587C85.7375 155.087 73.3084 161.183 59.375 161.183L38.7125 173.454C35.2292 175.592 30.7959 172.662 31.2709 168.625L33.25 153.029C22.6417 145.667 15.8334 133.871 15.8334 120.571C15.8334 106.637 23.275 94.3667 34.675 87.0833C41.7209 82.4916 50.1917 79.8792 59.375 79.8792C83.4417 79.8792 102.917 98.0875 102.917 120.571Z" fill="white"/>
</svg>
