<svg width="20" height="20" viewBox="0 0 20 20" fill="none" xmlns="http://www.w3.org/2000/svg">
<path d="M2.91671 17.7083H17.0834C17.425 17.7083 17.7084 17.9916 17.7084 18.3333C17.7084 18.6749 17.425 18.9583 17.0834 18.9583H2.91671C2.57504 18.9583 2.29171 18.6749 2.29171 18.3333C2.29171 17.9916 2.57504 17.7083 2.91671 17.7083Z" fill="#3A3A3A"/>
<path d="M15.8334 12.1001C15.4917 12.1001 15.2084 11.8167 15.2084 11.4751V4.42508L4.60837 15.0251C4.48337 15.1501 4.32504 15.2084 4.16671 15.2084C4.00837 15.2084 3.85004 15.1501 3.72504 15.0251C3.48337 14.7834 3.48337 14.3834 3.72504 14.1417L14.325 3.54175H7.27504C6.93337 3.54175 6.65004 3.25841 6.65004 2.91675C6.65004 2.57508 6.93337 2.29175 7.27504 2.29175H15.8334C15.9167 2.29175 15.9917 2.30841 16.075 2.34175C16.225 2.40008 16.35 2.52508 16.4084 2.67508C16.4417 2.75841 16.4584 2.83341 16.4584 2.91675V11.4751C16.4584 11.8167 16.175 12.1001 15.8334 12.1001Z" fill="#3A3A3A"/>
</svg>
