<svg width="303" height="91" viewBox="0 0 303 91" fill="none" xmlns="http://www.w3.org/2000/svg">
<rect width="303" height="91" rx="4" fill="#1A1A1A"/>
<path d="M0 3C0 1.34315 1.34315 0 3 0V91C1.34315 91 0 89.6569 0 88V3Z" fill="#3A3A3A"/>
<path d="M290.778 10.709C290.91 10.3365 290.649 9.95777 290.327 9.77201C289.747 9.43756 289.352 8.76953 289.352 8C289.352 6.89543 290.166 6 291.171 6C292.174 6 292.988 6.89137 292.991 7.99248C292.991 7.99499 292.991 7.99749 292.991 8C292.991 9.54807 292.744 10.6714 292.474 11.4339C292.34 11.8139 292.201 12.1005 292.088 12.3023C292.031 12.4031 291.981 12.4824 291.941 12.5414C291.921 12.5709 291.904 12.5953 291.889 12.6148C291.884 12.6226 291.869 12.6414 291.861 12.6522C291.859 12.6549 291.856 12.6585 291.856 12.6585C291.525 13.0741 290.95 13.1163 290.572 12.7526C290.199 12.3932 290.157 11.7721 290.475 11.3564L290.48 11.3492C290.49 11.3346 290.511 11.3023 290.539 11.2513C290.597 11.1495 290.685 10.9718 290.778 10.709Z" fill="#3A3A3A"/>
<path d="M291.863 12.6503L291.858 12.6566L291.859 12.6546L291.863 12.6503Z" fill="#3A3A3A"/>
<path d="M295.328 10.709C295.46 10.3365 295.198 9.95777 294.876 9.77201C294.297 9.43756 293.901 8.76953 293.901 8C293.901 6.89543 294.716 6 295.721 6C296.724 6 297.537 6.89137 297.541 7.99248C297.541 7.99499 297.541 7.99749 297.541 8C297.541 9.54807 297.294 10.6714 297.024 11.4339C296.889 11.8139 296.751 12.1005 296.637 12.3023C296.581 12.4031 296.53 12.4824 296.491 12.5414C296.471 12.5709 296.453 12.5953 296.439 12.6148C296.433 12.6226 296.419 12.6414 296.411 12.6522C296.408 12.6549 296.406 12.6585 296.406 12.6585C296.075 13.0741 295.5 13.1163 295.122 12.7526C294.748 12.3932 294.706 11.7721 295.025 11.3564L295.029 11.3492C295.039 11.3346 295.06 11.3023 295.089 11.2513C295.146 11.1495 295.235 10.9718 295.328 10.709Z" fill="#3A3A3A"/>
<path d="M296.412 12.6503L296.407 12.6566L296.409 12.6546L296.412 12.6503Z" fill="#3A3A3A"/>
</svg>
