<svg width="220" height="19" viewBox="0 0 220 19" fill="none" xmlns="http://www.w3.org/2000/svg">
<path d="M8.93746 18.6748L8.89454 18.6971C8.54882 18.8766 8.12612 18.8063 7.85706 18.5246C7.66886 18.3276 7.70422 18.0084 7.93097 17.8573L8.31111 17.6041L9.20741 16.8286L7.64819 17.3586C7.16905 17.5214 6.66943 17.6163 6.16393 17.6403C5.58919 17.6677 5.01376 17.6032 4.45933 17.4493L3.34074 17.1388L4.6741 16.3985C5.08811 16.1686 5.52132 15.9752 5.96882 15.8203L6.17784 15.748C6.78205 15.5388 7.41325 15.418 8.05197 15.389C8.54956 15.3665 9.04818 15.3905 9.54129 15.4609L9.61481 15.4714L9.95078 15.5194C10.2527 15.5625 10.5176 15.7433 10.6678 16.0087C10.8608 16.3499 10.7853 16.7798 10.4876 17.0348L10.2394 17.2474C10.2034 17.2783 10.1704 17.3127 10.141 17.35L9.39566 18.2958C9.27158 18.4533 9.11538 18.5825 8.93746 18.6748Z" fill="white" fill-opacity="0.7"/>
<path d="M0.9404 13.1239L0.407407 12.6408L1.62155 12.5638C2.4385 12.5119 3.25873 12.5632 4.06288 12.7162L4.50471 12.8003C5.03027 12.9004 5.54083 13.0674 6.02391 13.2973C6.62147 13.5816 7.17016 13.959 7.64953 14.4152L8.31111 15.0449L7.44335 15.1526C6.77493 15.2356 6.09893 15.2373 5.4301 15.1578L5.39717 15.1538C4.7887 15.0814 4.19048 14.9398 3.61412 14.7318C2.62659 14.3753 1.7183 13.8291 0.9404 13.1239Z" fill="white" fill-opacity="0.7"/>
<path d="M0.314411 7.99379L0 6.74694L1.27673 7.3281C1.67386 7.50886 2.05088 7.73088 2.40158 7.99049C3.02227 8.44996 3.55205 9.02091 3.96388 9.67418L4.03154 9.78151C4.38399 10.3406 4.65431 10.9474 4.83421 11.5834L5.13333 12.6408L4.11875 12.2385C3.49523 11.9912 2.91396 11.6485 2.39578 11.2225L2.32275 11.1625C1.70397 10.6539 1.19327 10.0265 0.820754 9.31743C0.600287 8.89776 0.430321 8.45345 0.314411 7.99379Z" fill="white" fill-opacity="0.7"/>
<path d="M2.4235 6.04141L2.3938 5.93643C2.21177 5.29292 2.14721 4.62188 2.20323 3.95547C2.25503 3.33913 2.40922 2.73573 2.65946 2.1701L2.93333 1.55102L3.53072 2.45125C3.78333 2.83193 3.9875 3.2426 4.13851 3.67379C4.36516 4.32092 4.46874 5.00475 4.44391 5.68998L4.43434 5.95418C4.41155 6.58313 4.3028 7.206 4.11111 7.80546L3.82963 8.68571L3.23082 7.79011C2.87176 7.2531 2.59933 6.663 2.4235 6.04141Z" fill="white" fill-opacity="0.7"/>
<path d="M5.27949 3.29211L5.31503 3.17131C5.46459 2.66293 5.69244 2.18095 5.99038 1.74271C6.28637 1.30734 6.64796 0.920395 7.06231 0.595625L7.82222 0L7.92011 1.07138C7.96328 1.54391 7.94001 2.02016 7.85097 2.48623C7.72443 3.14864 7.46721 3.7792 7.09433 4.34112L7.05848 4.39514C6.80814 4.77239 6.51135 5.11666 6.1751 5.41985L5.13333 6.35918L5.0586 5.43458C5.00028 4.71292 5.07515 3.98669 5.27949 3.29211Z" fill="white" fill-opacity="0.7"/>
<path d="M211.063 18.6748L211.105 18.6971C211.451 18.8766 211.874 18.8063 212.143 18.5246C212.331 18.3276 212.296 18.0084 212.069 17.8573L211.689 17.6041L210.793 16.8286L212.352 17.3586C212.831 17.5214 213.331 17.6163 213.836 17.6403C214.411 17.6677 214.986 17.6032 215.541 17.4493L216.659 17.1388L215.326 16.3985C214.912 16.1686 214.479 15.9752 214.031 15.8203L213.822 15.748C213.218 15.5388 212.587 15.418 211.948 15.389C211.45 15.3665 210.952 15.3905 210.459 15.4609L210.385 15.4714L210.049 15.5194C209.747 15.5625 209.482 15.7433 209.332 16.0087C209.139 16.3499 209.215 16.7798 209.512 17.0348L209.761 17.2474C209.797 17.2783 209.83 17.3127 209.859 17.35L210.604 18.2958C210.728 18.4533 210.885 18.5825 211.063 18.6748Z" fill="white" fill-opacity="0.7"/>
<path d="M219.06 13.1239L219.593 12.6408L218.378 12.5638C217.561 12.5119 216.741 12.5632 215.937 12.7162L215.495 12.8003C214.97 12.9004 214.459 13.0674 213.976 13.2973C213.379 13.5816 212.83 13.959 212.35 14.4152L211.689 15.0449L212.557 15.1526C213.225 15.2356 213.901 15.2373 214.57 15.1578L214.603 15.1538C215.211 15.0814 215.81 14.9398 216.386 14.7318C217.373 14.3753 218.282 13.8291 219.06 13.1239Z" fill="white" fill-opacity="0.7"/>
<path d="M219.686 7.99379L220 6.74694L218.723 7.3281C218.326 7.50886 217.949 7.73088 217.598 7.99049C216.978 8.44996 216.448 9.02091 216.036 9.67418L215.968 9.78151C215.616 10.3406 215.346 10.9474 215.166 11.5834L214.867 12.6408L215.881 12.2385C216.505 11.9912 217.086 11.6485 217.604 11.2225L217.677 11.1625C218.296 10.6539 218.807 10.0265 219.179 9.31743C219.4 8.89776 219.57 8.45345 219.686 7.99379Z" fill="white" fill-opacity="0.7"/>
<path d="M217.577 6.04141L217.606 5.93643C217.788 5.29292 217.853 4.62188 217.797 3.95547C217.745 3.33913 217.591 2.73573 217.341 2.1701L217.067 1.55102L216.469 2.45125C216.217 2.83193 216.012 3.2426 215.861 3.67379C215.635 4.32092 215.531 5.00475 215.556 5.68998L215.566 5.95418C215.588 6.58313 215.697 7.206 215.889 7.80546L216.17 8.68571L216.769 7.79011C217.128 7.2531 217.401 6.663 217.577 6.04141Z" fill="white" fill-opacity="0.7"/>
<path d="M214.721 3.29211L214.685 3.17131C214.535 2.66293 214.308 2.18095 214.01 1.74271C213.714 1.30734 213.352 0.920395 212.938 0.595625L212.178 0L212.08 1.07138C212.037 1.54391 212.06 2.02016 212.149 2.48623C212.276 3.14864 212.533 3.7792 212.906 4.34112L212.942 4.39514C213.192 4.77239 213.489 5.11666 213.825 5.41985L214.867 6.35918L214.941 5.43458C215 4.71292 214.925 3.98669 214.721 3.29211Z" fill="white" fill-opacity="0.7"/>
</svg>
