<svg width="230" height="19" viewBox="0 0 230 19" fill="none" xmlns="http://www.w3.org/2000/svg">
<path d="M8.93746 18.6748L8.89454 18.6971C8.54882 18.8766 8.12612 18.8063 7.85706 18.5246C7.66886 18.3276 7.70422 18.0084 7.93097 17.8573L8.31111 17.6041L9.20741 16.8286L7.64819 17.3586C7.16905 17.5214 6.66943 17.6163 6.16393 17.6403C5.58919 17.6677 5.01376 17.6032 4.45933 17.4493L3.34074 17.1388L4.6741 16.3985C5.08811 16.1686 5.52132 15.9752 5.96882 15.8203L6.17784 15.748C6.78205 15.5388 7.41325 15.418 8.05197 15.389C8.54956 15.3665 9.04818 15.3905 9.54129 15.4609L9.61481 15.4714L9.95078 15.5194C10.2527 15.5625 10.5176 15.7433 10.6678 16.0087C10.8608 16.3499 10.7853 16.7798 10.4876 17.0348L10.2394 17.2474C10.2034 17.2783 10.1704 17.3127 10.141 17.35L9.39566 18.2958C9.27158 18.4533 9.11538 18.5825 8.93746 18.6748Z" fill="white" fill-opacity="0.7"/>
<path d="M0.9404 13.1239L0.407407 12.6408L1.62155 12.5638C2.4385 12.5119 3.25873 12.5632 4.06288 12.7162L4.50471 12.8003C5.03027 12.9004 5.54083 13.0674 6.02391 13.2973C6.62147 13.5816 7.17016 13.959 7.64953 14.4152L8.31111 15.0449L7.44335 15.1526C6.77493 15.2356 6.09893 15.2373 5.4301 15.1578L5.39717 15.1538C4.7887 15.0814 4.19048 14.9398 3.61412 14.7318C2.62659 14.3753 1.7183 13.8291 0.9404 13.1239Z" fill="white" fill-opacity="0.7"/>
<path d="M0.314411 7.99379L0 6.74694L1.27673 7.3281C1.67386 7.50886 2.05088 7.73088 2.40158 7.99049C3.02227 8.44996 3.55205 9.02091 3.96388 9.67418L4.03154 9.78151C4.38399 10.3406 4.65431 10.9474 4.83421 11.5834L5.13333 12.6408L4.11875 12.2385C3.49523 11.9912 2.91396 11.6485 2.39578 11.2225L2.32275 11.1625C1.70397 10.6539 1.19327 10.0265 0.820754 9.31743C0.600287 8.89776 0.430321 8.45345 0.314411 7.99379Z" fill="white" fill-opacity="0.7"/>
<path d="M2.4235 6.04141L2.3938 5.93643C2.21177 5.29292 2.14721 4.62188 2.20323 3.95547C2.25503 3.33913 2.40922 2.73573 2.65946 2.1701L2.93333 1.55102L3.53072 2.45125C3.78333 2.83193 3.9875 3.2426 4.13851 3.67379C4.36516 4.32092 4.46874 5.00475 4.44391 5.68998L4.43434 5.95418C4.41155 6.58313 4.3028 7.206 4.11111 7.80546L3.82963 8.68571L3.23082 7.79011C2.87176 7.2531 2.59933 6.663 2.4235 6.04141Z" fill="white" fill-opacity="0.7"/>
<path d="M5.27949 3.29211L5.31503 3.17131C5.46459 2.66293 5.69244 2.18095 5.99038 1.74271C6.28637 1.30734 6.64796 0.920395 7.06231 0.595625L7.82222 0L7.92011 1.07138C7.96328 1.54391 7.94001 2.02016 7.85097 2.48623C7.72443 3.14864 7.46721 3.7792 7.09433 4.34112L7.05848 4.39514C6.80814 4.77239 6.51135 5.11666 6.1751 5.41985L5.13333 6.35918L5.0586 5.43458C5.00028 4.71292 5.07515 3.98669 5.27949 3.29211Z" fill="white" fill-opacity="0.7"/>
<path d="M221.063 18.6748L221.105 18.6971C221.451 18.8766 221.874 18.8063 222.143 18.5246C222.331 18.3276 222.296 18.0084 222.069 17.8573L221.689 17.6041L220.793 16.8286L222.352 17.3586C222.831 17.5214 223.331 17.6163 223.836 17.6403C224.411 17.6677 224.986 17.6032 225.541 17.4493L226.659 17.1388L225.326 16.3985C224.912 16.1686 224.479 15.9752 224.031 15.8203L223.822 15.748C223.218 15.5388 222.587 15.418 221.948 15.389C221.45 15.3665 220.952 15.3905 220.459 15.4609L220.385 15.4714L220.049 15.5194C219.747 15.5625 219.482 15.7433 219.332 16.0087C219.139 16.3499 219.215 16.7798 219.512 17.0348L219.761 17.2474C219.797 17.2783 219.83 17.3127 219.859 17.35L220.604 18.2958C220.728 18.4533 220.885 18.5825 221.063 18.6748Z" fill="white" fill-opacity="0.7"/>
<path d="M229.06 13.1239L229.593 12.6408L228.378 12.5638C227.561 12.5119 226.741 12.5632 225.937 12.7162L225.495 12.8003C224.97 12.9004 224.459 13.0674 223.976 13.2973C223.379 13.5816 222.83 13.959 222.35 14.4152L221.689 15.0449L222.557 15.1526C223.225 15.2356 223.901 15.2373 224.57 15.1578L224.603 15.1538C225.211 15.0814 225.81 14.9398 226.386 14.7318C227.373 14.3753 228.282 13.8291 229.06 13.1239Z" fill="white" fill-opacity="0.7"/>
<path d="M229.686 7.99379L230 6.74694L228.723 7.3281C228.326 7.50886 227.949 7.73088 227.598 7.99049C226.978 8.44996 226.448 9.02091 226.036 9.67418L225.968 9.78151C225.616 10.3406 225.346 10.9474 225.166 11.5834L224.867 12.6408L225.881 12.2385C226.505 11.9912 227.086 11.6485 227.604 11.2225L227.677 11.1625C228.296 10.6539 228.807 10.0265 229.179 9.31743C229.4 8.89776 229.57 8.45345 229.686 7.99379Z" fill="white" fill-opacity="0.7"/>
<path d="M227.577 6.04141L227.606 5.93643C227.788 5.29292 227.853 4.62188 227.797 3.95547C227.745 3.33913 227.591 2.73573 227.341 2.1701L227.067 1.55102L226.469 2.45125C226.217 2.83193 226.012 3.2426 225.861 3.67379C225.635 4.32092 225.531 5.00475 225.556 5.68998L225.566 5.95418C225.588 6.58313 225.697 7.206 225.889 7.80546L226.17 8.68571L226.769 7.79011C227.128 7.2531 227.401 6.663 227.577 6.04141Z" fill="white" fill-opacity="0.7"/>
<path d="M224.721 3.29211L224.685 3.17131C224.535 2.66293 224.308 2.18095 224.01 1.74271C223.714 1.30734 223.352 0.920395 222.938 0.595625L222.178 0L222.08 1.07138C222.037 1.54391 222.06 2.02016 222.149 2.48623C222.276 3.14864 222.533 3.7792 222.906 4.34112L222.942 4.39514C223.192 4.77239 223.489 5.11666 223.825 5.41985L224.867 6.35918L224.941 5.43458C225 4.71292 224.925 3.98669 224.721 3.29211Z" fill="white" fill-opacity="0.7"/>
</svg>
